<svg preserveAspectRatio="none" width="100%" height="100%" overflow="visible" style="display: block;" viewBox="0 0 92.1632 40.5" fill="none" xmlns="http://www.w3.org/2000/svg">
<g id="Logo EPAG">
<path id="path932" d="M0 36.6057H17.9122V40.4977H0V36.6057Z" fill="var(--fill-0, #016197)"/>
<path id="path934" d="M4.38215 14.924V8.71029C4.38215 5.76987 5.71366 3.7726 9.26435 3.7726C12.815 3.7726 14.1465 5.76987 14.1465 8.71029V14.924H4.38215ZM0.0547485 24.0781C0.0547485 29.6261 3.38351 32.511 10.6513 32.511C13.8137 32.511 15.8109 32.0672 17.4198 31.6233V27.5733C15.9219 28.0726 13.5917 28.5719 10.8733 28.5719C6.10201 28.5719 4.38215 26.963 4.38215 23.8562V18.5302H18.363V8.6548C18.363 3.71713 15.7 0 9.26435 0C2.82872 0 0.0547485 3.71713 0.0547485 8.6548V24.0781Z" fill="var(--fill-0, #016197)"/>
<path id="path936" d="M25.4873 2.50099V40.5H29.8702V32.2336H35.3626C40.2448 32.2336 43.5736 29.2931 43.5736 23.9671V7.71162C43.5736 2.94038 40.6332 0.44381 36.1948 0.44381C32.8409 0.301726 28.7812 0.805645 25.4873 2.50099ZM39.1907 8.3219V23.5788C39.1907 26.6856 37.4709 28.239 34.3085 28.239H29.8702V5.16695C32.5486 4.42489 33.355 4.40368 35.3071 4.49381C37.6902 4.60384 39.1907 5.65888 39.1907 8.3219Z" fill="var(--fill-0, #016197)"/>
<path id="path938" d="M51.0534 1.05412V5.10412C52.5514 4.54933 55.4918 3.99453 58.2658 3.99453C62.7596 3.99453 63.8137 5.49248 63.8692 8.21098V12.8712L56.2685 14.9795C51.5527 16.311 49.5 18.7521 49.5 22.7466V24.5219C49.5 29.4041 51.7747 32.1226 57.2117 32.1226C60.8178 32.1226 62.4267 31.0131 63.9247 29.6815V31.9562H68.0856V8.26645C68.0856 3.05137 65.4781 0 58.4877 0C55.4363 0 52.5514 0.554796 51.0534 1.05412ZM63.8137 26.6302C62.5377 27.6843 60.4849 28.6274 58.0993 28.6274C54.8815 28.6274 53.8274 27.2404 53.8274 24.5774V22.913C53.8274 20.4719 54.6596 19.2514 57.8774 18.3082L63.8137 16.6438V26.6302Z" fill="var(--fill-0, #016197)"/>
<path id="path940" d="M81.408 0.444003C76.9768 0.776094 74.029 2.94057 74.029 7.7118V23.6103C74.029 28.9363 77.3578 31.8767 82.24 31.8767C82.24 31.8767 86.5486 31.8542 87.7326 31.8767C87.7145 34.0458 88.0622 35.5328 85.0588 36.6407C82.0555 37.7485 75.8848 36.2105 75.8848 36.2105L75.5661 39.7838C79.4588 40.4159 85.8858 41.0492 88.8839 38.7505C91.8821 36.4519 92.1568 34.4219 92.1154 31.67L92.1632 2.56472C88.8104 0.647729 85.8392 0.111911 81.408 0.444003ZM82.2954 4.4939C84.311 4.27167 86.0204 4.44635 87.7326 5.16698V27.8822H83.294C80.1317 27.8822 78.4121 26.3288 78.4121 23.222V8.32178C78.4121 5.65876 79.1331 4.84258 82.2954 4.4939Z" fill="var(--fill-0, #016197)"/>
</g>
</svg>
