<svg preserveAspectRatio="none" width="100%" height="100%" overflow="visible" style="display: block;" viewBox="0 0 78.0236 34.2865" fill="none" xmlns="http://www.w3.org/2000/svg">
<g id="Logo EPAG">
<path id="path932" d="M0 30.9897H15.1641V34.2845H0V30.9897Z" fill="var(--fill-0, white)"/>
<path id="path934" d="M3.70984 12.6344V7.37396C3.70984 4.88466 4.83707 3.19381 7.84302 3.19381C10.849 3.19381 11.9762 4.88466 11.9762 7.37396V12.6344H3.70984ZM0.046349 20.3841C0.046349 25.0808 2.86442 27.5232 9.01721 27.5232C11.6944 27.5232 13.3852 27.1474 14.7473 26.7717V23.343C13.4792 23.7657 11.5065 24.1884 9.20508 24.1884C5.16584 24.1884 3.70984 22.8264 3.70984 20.1962V15.6873H15.5457V7.32699C15.5457 3.14685 13.2913 1.19209e-07 7.84302 1.19209e-07C2.39474 1.19209e-07 0.046349 3.14685 0.046349 7.32699V20.3841Z" fill="var(--fill-0, white)"/>
<path id="path936" d="M21.577 2.11729V34.2865H25.2875V27.2883H29.9373C34.0705 27.2883 36.8886 24.799 36.8886 20.2901V6.52851C36.8886 2.48927 34.3993 0.375721 30.6418 0.375721C27.8024 0.255435 24.3656 0.682043 21.577 2.11729ZM33.1781 7.04516V19.9613C33.1781 22.5915 31.7221 23.9066 29.0449 23.9066H25.2875V4.37424C27.555 3.74603 28.2377 3.72807 29.8903 3.80438C31.9078 3.89753 33.1781 4.7907 33.1781 7.04516Z" fill="var(--fill-0, white)"/>
<path id="path938" d="M43.2208 0.892395V4.32105C44.489 3.85137 46.9783 3.38169 49.3267 3.38169C53.1311 3.38169 54.0235 4.64983 54.0704 6.95125V10.8966L47.6358 12.6813C43.6436 13.8086 41.9057 15.8751 41.9057 19.2568V20.7598C41.9057 24.893 43.8314 27.1944 48.4343 27.1944C51.4872 27.1944 52.8493 26.2551 54.1174 25.1278V27.0535H57.64V6.99822C57.64 2.58324 55.4325 1.19209e-07 49.5145 1.19209e-07C46.9313 1.19209e-07 44.489 0.46968 43.2208 0.892395ZM54.0235 22.5446C52.9432 23.437 51.2054 24.2354 49.1858 24.2354C46.4616 24.2354 45.5692 23.0612 45.5692 20.8068V19.3977C45.5692 17.3312 46.2738 16.2979 48.9979 15.4994L54.0235 14.0904V22.5446Z" fill="var(--fill-0, white)"/>
<path id="path940" d="M68.9184 0.375884C65.167 0.657027 62.6715 2.48943 62.6715 6.52866V19.988C62.6715 24.4969 65.4896 26.9862 69.6228 26.9862C69.6228 26.9862 73.2703 26.9671 74.2727 26.9862C74.2574 28.8225 74.5517 30.0814 72.0092 31.0193C69.4666 31.9572 64.2426 30.6551 64.2426 30.6551L63.9728 33.6802C67.2683 34.2153 72.7093 34.7514 75.2474 32.8054C77.7856 30.8595 78.0182 29.1409 77.9831 26.8112L78.0236 2.17124C75.1851 0.548355 72.6698 0.0947418 68.9184 0.375884ZM69.6697 3.80445C71.3761 3.61631 72.8232 3.76419 74.2727 4.37426V23.6046H70.5151C67.838 23.6046 66.3822 22.2895 66.3822 19.6593V7.04506C66.3822 4.7906 66.9925 4.09964 69.6697 3.80445Z" fill="var(--fill-0, white)"/>
</g>
</svg>
