<svg width="40" height="26" viewBox="0 0 40 26" fill="none" xmlns="http://www.w3.org/2000/svg">
<rect width="39.8667" height="26" rx="3.46667" fill="#016197"/>
<path d="M20.9583 7.48963C20.9583 7.74379 20.8574 7.98755 20.6776 8.16727C20.4979 8.34699 20.2542 8.44796 20 8.44796C19.7458 8.44796 19.5021 8.34699 19.3224 8.16727C19.1426 7.98755 19.0417 7.74379 19.0417 7.48963C19.0417 7.23546 19.1426 6.99171 19.3224 6.81198C19.5021 6.63226 19.7458 6.53129 20 6.53129C20.2542 6.53129 20.4979 6.63226 20.6776 6.81198C20.8574 6.99171 20.9583 7.23546 20.9583 7.48963ZM20.989 3.72817C20.7019 3.51851 20.3555 3.40552 20 3.40552C19.6445 3.40552 19.2981 3.51851 19.011 3.72817L11.8992 8.91754C10.962 9.60083 11.4459 11.0834 12.6045 11.0834H12.8125V16.6417C12.3798 16.8625 12.0165 17.1987 11.7628 17.613C11.5091 18.0274 11.3749 18.5038 11.375 18.9896V20.4271C11.375 20.8229 11.697 21.1459 12.0938 21.1459H27.9062C28.0969 21.1459 28.2797 21.0702 28.4145 20.9354C28.5493 20.8006 28.625 20.6178 28.625 20.4271V18.9896C28.6251 18.5038 28.4909 18.0274 28.2372 17.613C27.9835 17.1987 27.6202 16.8625 27.1875 16.6417V11.0834H27.3955C28.555 11.0834 29.0371 9.60083 28.1008 8.91754L20.989 3.72817ZM19.8582 4.88871C19.8992 4.85873 19.9487 4.84257 19.9995 4.84257C20.0503 4.84257 20.0998 4.85873 20.1409 4.88871L26.6604 9.64588H13.3396L19.8582 4.88871ZM25.75 11.0834V16.3542H23.8333V11.0834H25.75ZM22.3958 11.0834V16.3542H20.7188V11.0834H22.3958ZM19.2812 11.0834V16.3542H17.6042V11.0834H19.2812ZM14.0104 17.7917H25.9896C26.6508 17.7917 27.1875 18.3284 27.1875 18.9896V19.7084H12.8125V18.9896C12.8125 18.3284 13.3492 17.7917 14.0104 17.7917ZM14.25 16.3542V11.0834H16.1667V16.3542H14.25Z" fill="white"/>
</svg>
