<svg width="40" height="26" viewBox="0 0 40 26" fill="none" xmlns="http://www.w3.org/2000/svg">
<rect width="39.8667" height="26" rx="3.46667" fill="#4C1D80"/>
<g clip-path="url(#clip0_704_3133)">
<path d="M9.25647 14.6699C9.24545 14.7251 9.23488 14.7805 9.23488 14.8358C9.23488 15.0549 9.36616 15.1697 9.57909 15.2079L9.17885 17.1195C8.38213 17.0776 7.75907 16.7829 7.495 16.1406H7.47815C7.1817 16.6714 6.7094 17.125 5.9408 17.125C4.8978 17.125 4.25002 16.2955 4.25 14.8248C4.25 12.4471 5.62061 10.3278 7.14673 10.3278C7.65469 10.3278 8.06199 10.715 8.20325 11.1107L8.66908 8.88599H10.4642L9.25647 14.6699ZM13.0911 10.3278C15.2771 10.3278 15.2584 12.654 14.8939 14.2777H11.6808C11.6035 14.8004 11.7472 15.4568 12.4095 15.4569C12.818 15.4569 13.0856 15.3311 13.5719 14.8248L14.542 15.8795C14.3213 16.1044 14.1169 16.2953 13.9179 16.4556C13.479 16.7816 12.8313 17.125 12.0496 17.125C10.3163 17.1249 9.85925 15.9682 9.85925 14.467C9.85925 12.7209 10.8828 10.3278 13.0911 10.3278ZM16.7711 14.8563C16.749 14.9675 16.7378 15.0677 16.7378 15.1566C16.7378 15.5013 16.8923 15.7125 17.2014 15.7125C17.6762 15.7125 18.0298 15.1899 18.1843 14.456L18.9966 10.5339H20.7617L19.9106 14.6564C19.8995 14.7118 19.8883 14.7675 19.8883 14.823C19.8884 15.1009 20.0984 15.2123 20.4186 15.2123L19.9989 17.125C19.1377 17.125 18.5043 16.8803 18.2283 16.1242H18.2063C17.8862 16.669 17.4224 17.114 16.5942 17.114C15.4791 17.114 14.9269 16.3799 14.9269 15.3346C14.9269 15.1122 14.9489 14.8674 15.0041 14.6227L15.8593 10.5339H17.6837L16.7711 14.8563ZM24.7962 10.3278C26.0548 10.3278 26.3976 11.4755 26.1326 12.7766L25.7462 14.656C25.6688 15.0563 25.8091 15.2101 26.1846 15.2101L25.7836 17.125C24.4145 17.1139 23.527 16.413 23.9243 14.578L24.366 12.5539C24.4433 12.2094 24.366 11.7645 23.9466 11.7644C23.262 11.7644 23.052 12.3762 22.7539 13.8441L22.0695 17.125H20.2476L21.385 11.6754C21.5495 10.8911 21.4063 10.5385 21.4044 10.5339H23.0963C23.2873 10.6969 23.3182 10.8534 23.3182 11.1426C23.3215 11.137 23.7944 10.3278 24.7962 10.3278ZM29.6757 10.3278C31.0338 10.3278 31.8129 11.2754 31.8129 12.432C31.8129 12.621 31.8016 12.8099 31.7576 12.9989L31.4042 14.656C31.3931 14.7116 31.3822 14.7674 31.3822 14.823C31.3823 15.1009 31.5921 15.2123 31.9121 15.2123L31.4924 17.125C30.8079 17.125 29.9247 16.8803 29.6486 16.1242H29.6266C29.3285 16.6579 28.8536 17.114 28.0808 17.114C27.0319 17.114 26.3805 16.2799 26.3805 14.8007C26.3805 12.9212 27.4453 10.3278 29.6757 10.3278ZM33.0298 15.5027C33.4744 15.5027 33.8347 15.8659 33.8347 16.3138C33.8347 16.7618 33.4745 17.125 33.0298 17.125C32.5851 17.125 32.2245 16.7618 32.2245 16.3138C32.2245 15.8659 32.5851 15.5027 33.0298 15.5027ZM7.40125 11.7505C6.5558 11.7505 6.0177 13.9291 6.0177 14.8801C6.01772 15.3998 6.17145 15.7315 6.53369 15.7316C6.98383 15.7316 7.33074 15.2848 7.48438 14.5549L7.84656 12.8077C7.97829 12.1885 7.76347 11.7506 7.40125 11.7505ZM29.5164 11.8981C28.6661 11.8981 28.1581 13.9 28.1581 14.8563C28.1581 15.3789 28.3127 15.7128 28.677 15.7129C29.1296 15.7129 29.4609 15.1899 29.6156 14.456L29.9466 12.8879C29.9688 12.7544 29.991 12.6432 29.991 12.532C29.991 12.1317 29.8033 11.8981 29.5164 11.8981ZM34.0028 15.2203H32.1428L33.1356 10.5251H32.624L32.8405 9.4657C33.0044 9.45309 33.1826 9.39861 33.3524 9.2998C33.5474 9.18641 33.6982 9.03444 33.7897 8.875H35.3347L34.0028 15.2203ZM12.9508 11.7867C12.4871 11.7867 12.1337 12.3317 11.9349 12.9989H13.3925C13.5139 12.3985 13.4144 11.7869 12.9508 11.7867Z" fill="white"/>
</g>
<defs>
<clipPath id="clip0_704_3133">
<rect width="31.5" height="9" fill="white" transform="translate(4.25 8.5)"/>
</clipPath>
</defs>
</svg>
