<svg width="40" height="26" viewBox="0 0 40 26" fill="none" xmlns="http://www.w3.org/2000/svg">
<rect width="39.8667" height="26" rx="3.46667" fill="url(#paint0_linear_704_3148)"/>
<path fill-rule="evenodd" clip-rule="evenodd" d="M10.5825 9.57298C10.6513 9.5466 10.7209 9.53381 10.7911 9.53381C10.841 9.53381 10.8915 9.54047 10.9418 9.55353C11.0667 9.58897 11.1674 9.65798 11.2442 9.76029C11.321 9.85994 11.3593 9.97371 11.3593 10.1019V15.8818C11.3593 16.0387 11.3032 16.1719 11.1913 16.2812C11.0829 16.3931 10.95 16.4496 10.7935 16.4496C10.6367 16.4496 10.5022 16.3931 10.3903 16.2812C10.2787 16.1719 10.2226 16.0387 10.2226 15.8818V12.1407C10.2226 12.1407 8.4093 15.1403 8.40213 15.1517C8.34977 15.2383 8.26765 15.2983 8.17676 15.3398C8.10686 15.3723 8.02873 15.3905 7.94687 15.3905C7.86449 15.3905 7.78662 15.3723 7.71646 15.3398C7.62583 15.2983 7.54291 15.2402 7.49136 15.1523C7.48232 15.1373 5.67087 12.1407 5.67087 12.1407V15.8818C5.67087 16.0387 5.61506 16.1719 5.50291 16.2812C5.39102 16.3931 5.25655 16.4496 5.10028 16.4496C4.94321 16.4496 4.8106 16.3931 4.7019 16.2812C4.59001 16.1719 4.53394 16.0387 4.53394 15.8818V10.1019C4.53394 9.97371 4.57221 9.85994 4.64901 9.76029C4.72582 9.65798 4.82681 9.58897 4.95145 9.55353C5.00221 9.54047 5.05244 9.53381 5.1024 9.53381C5.17257 9.53381 5.24193 9.5466 5.31103 9.57298C5.42929 9.62094 5.52231 9.69927 5.58928 9.80878L7.94687 13.7137L10.3039 9.80878C10.3712 9.69927 10.4642 9.62094 10.5825 9.57298ZM16.0846 9.85914C16.1516 9.71792 16.2722 9.53381 16.5997 9.53381C16.8965 9.53381 17.048 9.71792 17.1152 9.85914L19.8385 15.6393C19.906 15.7808 19.9132 15.926 19.8606 16.0752C19.808 16.2244 19.7112 16.3329 19.5704 16.4005C19.4298 16.468 19.2852 16.4751 19.1366 16.4227C18.9881 16.3696 18.8799 16.2724 18.8127 16.1312L16.5999 11.4367L14.3866 16.1312C14.3194 16.2724 14.2118 16.3696 14.0632 16.4227C13.9144 16.4751 13.7695 16.468 13.629 16.4005C13.4881 16.3329 13.3914 16.2244 13.3387 16.0752C13.2861 15.926 13.2936 15.7808 13.3608 15.6393L16.0846 9.85914ZM22.5509 10.5476C23.2264 9.87166 24.0383 9.53381 24.9874 9.53381C25.8782 9.53381 26.6535 9.83436 27.3128 10.4363C27.4287 10.5428 27.4898 10.6752 27.4962 10.834C27.5023 10.9926 27.4529 11.1298 27.3463 11.2465C27.2405 11.3659 27.1087 11.429 26.9508 11.4357C26.7933 11.4418 26.6566 11.3917 26.5408 11.2851C26.1033 10.8839 25.5859 10.6835 24.9874 10.6835C24.3538 10.6835 23.8116 10.9097 23.3614 11.3627C22.9112 11.8154 22.6861 12.3602 22.6861 12.9973C22.6861 13.6397 22.9112 14.1843 23.3614 14.6372C23.8116 15.0899 24.3538 15.3161 24.9874 15.3161C25.5859 15.3161 26.1033 15.116 26.5408 14.7145C26.6566 14.6082 26.7933 14.5578 26.9508 14.5645C27.1087 14.5709 27.2405 14.6338 27.3463 14.7534C27.4529 14.8704 27.5023 15.0073 27.4962 15.1659C27.4898 15.3244 27.4287 15.4571 27.3128 15.5636C26.6535 16.1653 25.8782 16.4661 24.9874 16.4661C24.0383 16.4661 23.2264 16.1282 22.5509 15.4523C21.8787 14.7731 21.5428 13.9565 21.5428 13.0023C21.5428 12.0434 21.8787 11.2268 22.5509 10.5476ZM34.5389 9.70007C34.6492 9.58923 34.7813 9.53381 34.9357 9.53381C35.0899 9.53381 35.2222 9.58923 35.3325 9.70007C35.4428 9.81118 35.4981 9.9444 35.4981 10.0997V15.9002C35.4981 16.0555 35.4428 16.189 35.3325 16.2996C35.2222 16.4107 35.0899 16.4661 34.9357 16.4661C34.7813 16.4661 34.6492 16.4107 34.5389 16.2996C34.4284 16.189 34.3736 16.0555 34.3736 15.9002V13.6232H30.9012V15.9002C30.9012 16.0555 30.8475 16.189 30.7406 16.2996C30.6303 16.4107 30.498 16.4661 30.3439 16.4661C30.1892 16.4661 30.0571 16.4107 29.9471 16.2996C29.8368 16.189 29.7815 16.0555 29.7815 15.9002V10.0997C29.7815 9.9444 29.8368 9.81118 29.9471 9.70007C30.0571 9.58923 30.1892 9.53381 30.3439 9.53381C30.498 9.53381 30.6303 9.58923 30.7406 9.70007C30.8475 9.81118 30.9012 9.9444 30.9012 10.0997V12.4961H34.3736V10.0997C34.3736 9.9444 34.4284 9.81118 34.5389 9.70007Z" fill="white"/>
<defs>
<linearGradient id="paint0_linear_704_3148" x1="19.9333" y1="0" x2="19.9333" y2="26" gradientUnits="userSpaceOnUse">
<stop stop-color="#6B00AA"/>
<stop offset="1" stop-color="#5582FF"/>
</linearGradient>
</defs>
</svg>
