<svg width="40" height="26" viewBox="0 0 40 26" fill="none" xmlns="http://www.w3.org/2000/svg">
<rect width="39.8667" height="26" rx="3.46667" fill="#CA0080"/>
<g clip-path="url(#clip0_704_3101)">
<path d="M4.05613 8.31531H2.61513C2.44705 8.31531 2.31079 8.45157 2.31079 8.61965V9.84431C2.31079 10.0124 2.44705 10.1486 2.61513 10.1486H4.05613C4.2242 10.1486 4.36046 10.0124 4.36046 9.84431V8.61965C4.36046 8.45157 4.2242 8.31531 4.05613 8.31531Z" fill="#200020"/>
<path d="M12.8635 8.3153H11.6205C11.4518 8.3153 11.3162 8.45464 11.3162 8.61964V13.588C11.3162 13.6906 11.1842 13.7273 11.1365 13.6356L8.24715 8.44731C8.19949 8.36298 8.11512 8.3153 8.01245 8.3153H5.94445C5.77578 8.3153 5.64014 8.45464 5.64014 8.61964V16.558C5.64014 16.7266 5.77945 16.8623 5.94445 16.8623H7.18745C7.35612 16.8623 7.49182 16.723 7.49182 16.558V11.4393C7.49182 11.3366 7.62382 11.3 7.67149 11.3916L10.6415 16.734C10.6891 16.8183 10.7735 16.866 10.8762 16.866H12.8525C13.0212 16.866 13.1568 16.7266 13.1568 16.5616V8.61597C13.1568 8.44731 13.0175 8.31165 12.8525 8.31165H12.8635V8.3153Z" fill="white"/>
<path d="M15.903 12.9169C16.0826 12.1139 16.552 11.7583 17.2596 11.7583C17.8903 11.7583 18.433 12.1249 18.51 12.9169H15.9066H15.903ZM20.3396 13.7639C20.3396 11.5273 18.884 10.4163 17.2853 10.4163C15.2063 10.4163 14.022 11.8573 14.022 13.8006C14.022 16.0116 15.5106 17.0639 17.2376 17.0639C18.9646 17.0639 19.973 16.1729 20.2443 15.0143C20.281 14.8639 20.1966 14.7319 19.973 14.7319H18.994C18.884 14.7319 18.785 14.7906 18.7373 14.9006C18.4916 15.4359 18.0993 15.7183 17.344 15.7183C16.4896 15.7183 15.914 15.1829 15.8296 14.0939H20.0316C20.2113 14.0939 20.336 13.9619 20.336 13.7639H20.3396Z" fill="white"/>
<path d="M36.3188 10.574H35.0722C34.9041 10.574 34.7678 10.7102 34.7678 10.8783V16.5616C34.7678 16.7297 34.9041 16.866 35.0722 16.866H36.3188C36.4869 16.866 36.6232 16.7297 36.6232 16.5616V10.8783C36.6232 10.7102 36.4869 10.574 36.3188 10.574Z" fill="white"/>
<path d="M24.2155 15.645C23.3978 15.645 22.8221 15.0437 22.8221 13.753C22.8221 12.4623 23.3978 11.7877 24.2155 11.7877C25.0331 11.7877 25.6088 12.411 25.6088 13.753C25.6088 15.095 25.0331 15.645 24.2155 15.645ZM27.0461 10.574H25.8031C25.6345 10.574 25.4988 10.7133 25.4988 10.8783V11.1863C25.1285 10.75 24.5161 10.4493 23.7131 10.4493C21.9165 10.4493 20.9668 12.0737 20.9668 13.797C20.9668 15.3003 21.7478 16.987 23.6765 16.987C24.3658 16.987 25.0991 16.657 25.4988 16.1913V18.637C25.4988 18.8057 25.6381 18.9413 25.8031 18.9413H27.0461C27.2148 18.9413 27.3505 18.802 27.3505 18.637V10.8893C27.3505 10.7207 27.2111 10.585 27.0461 10.585V10.574Z" fill="white"/>
<path d="M33.668 10.574H32.425C32.2563 10.574 32.1206 10.7133 32.1206 10.8783V14.094C32.1206 15.1316 31.6586 15.4323 31.0683 15.4323C30.478 15.4323 30.016 15.128 30.016 14.094V10.8783C30.016 10.7096 29.8766 10.574 29.7116 10.574H28.4686C28.3 10.574 28.1643 10.7133 28.1643 10.8783V14.226C28.1643 16.217 29.2643 17.02 31.072 17.02C32.8796 17.02 33.9796 16.2133 33.9796 14.226V10.8783C33.9796 10.7096 33.8403 10.574 33.6753 10.574H33.6643H33.668Z" fill="white"/>
</g>
<defs>
<clipPath id="clip0_704_3101">
<rect width="34.8333" height="11" fill="white" transform="translate(2.0835 8)"/>
</clipPath>
</defs>
</svg>
