<svg width="40" height="26" viewBox="0 0 40 26" fill="none" xmlns="http://www.w3.org/2000/svg">
<rect width="39.8667" height="26" rx="3.46667" fill="white"/>
<path fill-rule="evenodd" clip-rule="evenodd" d="M4 6.51331C4 5.95591 4.44828 5.5 4.99651 5.5H35.0035C35.5515 5.5 36 5.95591 36 6.51331V19.4865C36 20.0441 35.5515 20.5 35.0035 20.5H4.99651C4.44846 20.5 4 20.0441 4 19.4865V6.51331Z" fill="#FBB110"/>
<path fill-rule="evenodd" clip-rule="evenodd" d="M4 6.97256H35.9998V19.0269H4V6.97256Z" fill="white"/>
<path fill-rule="evenodd" clip-rule="evenodd" d="M31.1189 10.1032C29.6548 10.1032 28.4612 11.3173 28.4612 12.8063C28.4612 14.2946 29.6548 15.5088 31.1189 15.5088C32.5826 15.5088 33.7761 14.2946 33.7761 12.8063C33.7761 11.3173 32.5826 10.1032 31.1189 10.1032ZM9.21471 10.1032C7.75044 10.1032 6.55692 11.3173 6.55692 12.8063C6.55692 14.2946 7.75062 15.5088 9.21471 15.5088C10.6783 15.5088 11.872 14.2946 11.872 12.8063C11.872 11.3173 10.6783 10.1032 9.21471 10.1032Z" fill="#CC2229"/>
<path fill-rule="evenodd" clip-rule="evenodd" d="M30.9106 7.72457C28.4503 7.66698 27.2939 9.27157 25.615 11.2504L24.0318 13.1168L26.5392 16.1697C27.1363 17.1077 25.9963 18.0388 25.2889 17.1805L22.9707 14.3679L20.7118 17.0314C19.9923 17.8791 18.8652 16.9321 19.4753 16.0027L21.9277 13.1024L20.3211 11.1532L21.3546 9.85137L22.9887 11.8476L24.3973 10.1812C25.0883 9.36416 25.7931 8.2816 26.7067 7.72476H4V18.2756H9.30884C11.7693 18.2756 12.8861 16.7793 14.5194 14.7618L16.0603 12.8581L13.4837 9.86508C12.8657 8.94121 13.9842 7.98401 14.7111 8.82547L17.0923 11.5832L19.2911 8.86732C19.9908 8.00253 21.139 8.92343 20.5505 9.86674L18.1638 12.8241L19.8144 14.7351L18.7743 15.9877L17.1315 14.1031L15.7613 15.8018C15.0887 16.6347 14.4079 17.6971 13.5072 18.2752H35.9996V7.72457H30.9106ZM13.4131 12.8063C13.4131 15.1583 11.5273 17.0764 9.21471 17.0764C6.90159 17.0764 5.01581 15.1585 5.01581 12.8063C5.01581 10.4538 6.90141 8.53585 9.21471 8.53585C11.5273 8.53585 13.4131 10.4538 13.4131 12.8063ZM31.1189 17.0764C28.8063 17.0764 26.92 15.1585 26.92 12.8063C26.92 10.4538 28.8061 8.53585 31.1189 8.53585C33.4318 8.53585 35.3174 10.4538 35.3174 12.8063C35.3174 15.1583 33.4318 17.0764 31.1189 17.0764Z" fill="#E70020"/>
</svg>
