<svg width="40" height="26" viewBox="0 0 40 26" fill="none" xmlns="http://www.w3.org/2000/svg">
<g clip-path="url(#clip0_703_2874)">
<rect width="39.8667" height="26" rx="3.46667" fill="#FFCE00"/>
<g clip-path="url(#clip1_703_2874)">
<path fill-rule="evenodd" clip-rule="evenodd" d="M0 2H39.6667V23H0V2Z" fill="#FFCE00"/>
<path fill-rule="evenodd" clip-rule="evenodd" d="M13.8595 13.8923C13.18 14.5022 12.4352 15.0465 11.6677 15.5398C10.0725 16.565 8.29315 17.4319 6.52551 18.1188C5.94073 18.346 5.24823 18.4774 4.66465 18.1737C4.2811 17.9741 4.02856 17.6271 3.89479 17.2228C3.79569 16.9233 3.75298 16.571 3.69709 16.2586C3.24494 13.7315 3.43994 10.7842 3.94895 8.26333C4.0752 7.63797 4.37301 6.79402 5.03699 6.56958C5.35578 6.46185 5.71697 6.46812 6.04375 6.53701C6.15117 6.55966 6.24515 6.59179 6.3474 6.62986C8.52227 7.43928 10.4686 8.45005 12.2979 9.88455C12.8159 10.2908 13.3835 10.7128 13.8595 11.1661C14.1699 11.4617 14.4571 11.7968 14.5339 12.2322C14.5549 12.3511 14.5592 12.4712 14.55 12.5915C14.5134 13.0714 14.2568 13.6028 13.8595 13.8923H13.8595Z" fill="#FEFEFE"/>
<path fill-rule="evenodd" clip-rule="evenodd" d="M4.31707 17.0824C4.4752 17.5603 4.94951 18.2515 6.36228 17.7025C8.40395 16.9092 11.4549 15.4567 13.5782 13.5433C13.5782 13.5433 14.0533 13.2132 14.1033 12.5574C14.1534 11.9017 13.6425 11.5074 12.0208 10.2357C10.425 8.9843 8.63709 7.95884 6.19012 7.04818C6.1036 7.01599 6.04158 6.99306 5.95008 6.97377C5.78166 6.93826 5.46469 6.89567 5.17839 6.99243C4.76424 7.13243 4.50751 7.74492 4.38503 8.35158C4.26835 8.92942 3.51119 12.6932 4.13501 16.1798C4.17893 16.4255 4.24187 16.8551 4.31709 17.0824H4.31707Z" fill="#FFB700"/>
<path fill-rule="evenodd" clip-rule="evenodd" d="M4.59121 7.66691L4.59119 7.66693C4.52003 7.91095 4.46015 8.22698 4.42725 8.63588L4.42826 8.62473C4.84281 8.48393 5.43264 8.42931 6.26901 8.53241C8.9408 8.8618 11.6841 10.368 13.1712 11.2727L13.5737 11.512C13.4681 11.4101 13.345 11.3007 13.2028 11.1805L13.2027 11.1804L13.1741 11.1563L13.1596 11.1442C13.1298 11.1192 13.0999 11.0944 13.0699 11.0696L13.0546 11.0569L13.0234 11.0313L13.0076 11.0184L12.9917 11.0053L12.9595 10.9791L12.9431 10.9658L12.9101 10.939L12.8934 10.9255L12.8596 10.8982L12.8425 10.8844L12.8078 10.8566L12.7903 10.8426L12.7727 10.8285L12.7549 10.8143L12.737 10.8L12.7189 10.7856L12.6824 10.7565L12.6639 10.7418L12.6453 10.727L12.6266 10.7122L12.6077 10.6972L12.5695 10.667L12.5502 10.6517L12.5307 10.6363L12.5139 10.623L12.5111 10.6209L12.4914 10.6053L12.4715 10.5897L12.4515 10.5739L12.4482 10.5713L12.4314 10.558L12.4111 10.542L12.3906 10.526L12.381 10.5183L12.37 10.5098L12.3493 10.4935L12.3285 10.4771L12.3122 10.4642L12.3075 10.4606L12.2863 10.4439L12.265 10.4272L12.2436 10.4104L12.2418 10.409L12.222 10.3935L12.2002 10.3764L12.1783 10.3592L12.1698 10.3525L12.1563 10.3419L12.1341 10.3245L12.1118 10.307L12.0962 10.2948L12.0893 10.2894L12.0667 10.2717L12.0439 10.2538L12.021 10.2359C10.4251 8.98442 8.63725 7.95896 6.19028 7.0483C6.10376 7.01611 6.04174 6.99318 5.95024 6.97389C5.78182 6.93838 5.46485 6.89579 5.17855 6.99255C5.17286 6.99447 5.1672 6.99652 5.1616 6.99862L5.15749 7.00017C5.152 7.00227 5.14652 7.00444 5.14108 7.0067L5.1387 7.00773C5.13328 7.00999 5.12788 7.01236 5.12254 7.0148L5.12096 7.01551C5.11552 7.01801 5.11014 7.02063 5.10476 7.02329L5.10095 7.0252C5.09574 7.0278 5.09057 7.03049 5.08545 7.03326L5.08207 7.03512C5.07745 7.03764 5.07284 7.04022 5.06826 7.04286L5.06542 7.04449C5.06034 7.04749 5.0553 7.05054 5.0503 7.05366L5.04643 7.05608C5.04137 7.05926 5.03635 7.06249 5.03136 7.06582L5.02849 7.06777C5.02402 7.07077 5.01957 7.07384 5.01515 7.07698L5.01219 7.07904C5.00731 7.08254 5.00247 7.08611 4.99764 7.08972L4.99385 7.09262C4.98897 7.09633 4.98413 7.10006 4.97932 7.10389L4.97887 7.10427L4.97833 7.10473C4.97339 7.10868 4.96849 7.1127 4.96362 7.11681L4.96112 7.11892C4.95632 7.12299 4.95152 7.12713 4.94679 7.13134L4.94368 7.13412C4.93921 7.13811 4.93479 7.14214 4.93038 7.14625L4.92917 7.14736L4.92881 7.1477L4.92867 7.14781C4.92403 7.15216 4.9194 7.15663 4.9148 7.16111L4.9115 7.16435C4.9069 7.16889 4.9023 7.1735 4.89771 7.1782L4.89584 7.18013C4.89164 7.18449 4.88741 7.18892 4.88322 7.1934L4.88074 7.19602C4.87633 7.20077 4.87199 7.20561 4.86762 7.21045L4.86445 7.21403C4.86002 7.21903 4.85559 7.22407 4.85123 7.22917L4.84934 7.23139C4.84541 7.23606 4.84146 7.24074 4.83757 7.24548L4.83481 7.24882C4.83065 7.25392 4.82652 7.25908 4.82239 7.26428L4.81919 7.26837C4.81511 7.27357 4.81106 7.27881 4.80705 7.28407L4.80627 7.2851L4.80516 7.28661C4.80149 7.29149 4.79782 7.29641 4.79421 7.30136L4.79067 7.30618C4.78686 7.31146 4.78305 7.31678 4.77928 7.32212L4.77561 7.32737C4.77168 7.33301 4.76777 7.33867 4.7639 7.34436L4.76382 7.34448L4.59121 7.66691ZM4.82114 7.41506C4.81626 7.41877 4.81139 7.4225 4.80661 7.42633L4.82114 7.41506ZM4.66109 7.5795C4.65702 7.5847 4.65297 7.58992 4.64894 7.5952L4.66109 7.5795ZM4.62967 7.6228C4.62574 7.62844 4.62183 7.6341 4.61796 7.63979L4.62967 7.6228ZM4.61707 7.6418L4.61502 7.64493C4.61101 7.65111 4.607 7.65732 4.60306 7.66359L4.60119 7.66653C4.5973 7.67274 4.59345 7.67897 4.58962 7.68526L4.5891 7.68608L4.58855 7.68699C4.58472 7.6933 4.58093 7.69967 4.57713 7.70606L4.57527 7.70922C4.57138 7.71587 4.56751 7.72254 4.56368 7.72925L4.56189 7.73242L4.5525 7.74917L4.54974 7.75416C4.54629 7.76047 4.54284 7.76686 4.53942 7.77323L4.5368 7.77813L4.5269 7.79701L4.52591 7.79891L4.52472 7.80125L4.51529 7.81983L4.51323 7.82392C4.50993 7.83053 4.50666 7.83716 4.50342 7.84381L4.5009 7.84903C4.49757 7.85595 4.49421 7.86288 4.49094 7.86987L4.49056 7.87066L4.4904 7.871C4.48717 7.8779 4.48397 7.88487 4.48077 7.89182L4.47813 7.89757L4.46875 7.91849L4.46684 7.92284L4.61707 7.6418ZM4.65111 7.56799C4.64777 7.57491 4.64444 7.58184 4.64114 7.58883L4.65111 7.56799Z" fill="#FFDF77"/>
<path fill-rule="evenodd" clip-rule="evenodd" d="M4.42811 8.62494C4.84266 8.48414 5.43249 8.42952 6.26886 8.53263C8.94065 8.86201 11.6839 10.3682 13.171 11.2729C11.9266 14.8709 6.46724 17.446 6.46724 17.446C5.8139 16.7926 5.18392 16.186 4.57726 11.6826C4.39276 10.313 4.37025 9.33022 4.42811 8.62494Z" fill="#FFCE00"/>
<path d="M17.1378 7.23712C17.7258 7.162 18.3199 7.16432 18.9116 7.16992C19.305 7.17925 19.7129 7.27912 20.033 7.5162C20.3023 7.72293 20.3135 8.0944 20.2981 8.40426C20.2724 8.92785 20.1683 9.49253 19.7805 9.8766C19.4599 10.2131 19.0026 10.3899 18.5462 10.4338C18.1085 10.4931 17.6637 10.5084 17.225 10.4473C17.1177 10.8715 17.0081 11.2953 16.925 11.7251C16.9021 11.8506 16.8513 11.9999 16.7103 12.0312C16.5442 12.0606 16.3748 12.0256 16.2077 12.0377C16.1069 12.0368 15.9996 12.0583 15.9044 12.0158C15.8143 11.9626 15.8708 11.8464 15.8731 11.7643C15.9949 11.1641 16.1172 10.5645 16.2423 9.9648C16.2777 9.79074 16.3062 9.61436 16.3687 9.44728C16.8443 9.43795 17.3203 9.44355 17.7963 9.44309C17.8719 9.43515 17.9391 9.47249 18.0044 9.50516C17.9759 9.64097 17.9545 9.77768 17.9498 9.91675C18.1943 9.78189 18.402 9.5929 18.6199 9.42023C18.8635 9.21254 19.109 9.00536 19.3283 8.77155C19.0087 8.37161 18.6806 7.97775 18.3558 7.58201C18.2625 7.71456 18.3147 7.93435 18.1566 8.0165C17.9297 8.06641 17.6941 8.03047 17.464 8.03188C17.1906 8.01554 16.9138 8.07108 16.6445 8.00387C16.6539 7.79202 16.6655 7.56614 16.7761 7.37993C16.8531 7.2614 17.0127 7.25999 17.1378 7.23712ZM20.9813 8.6432C21.4377 8.52886 21.9379 8.48452 22.3855 8.66045C22.6155 8.74726 22.7994 8.94792 22.8521 9.19012C22.959 9.61245 22.805 10.0352 22.7457 10.4525C22.6827 10.8851 22.6006 11.3148 22.5278 11.7465C22.5045 11.8949 22.4378 12.062 22.2753 12.1007C21.8269 12.2174 21.3565 12.2515 20.8945 12.2211C20.5706 12.1899 20.2015 12.1199 19.9999 11.8366C19.7983 11.5571 19.8477 11.1865 19.9234 10.8715C19.9915 10.5654 20.201 10.2821 20.5034 10.1757C20.8749 10.0418 21.2781 10.0567 21.6673 10.0315C21.7653 10.0189 21.8829 10.0395 21.9645 9.9704C22.028 9.8122 22.05 9.62692 21.9996 9.46219C21.9258 9.27834 21.6976 9.255 21.5254 9.26433C21.1637 9.26294 20.8179 9.37214 20.4782 9.48273C20.4395 9.2984 20.3811 9.08512 20.4922 8.91386C20.5972 8.74492 20.8016 8.69173 20.9813 8.6432ZM20.7512 10.9387C20.7148 11.082 20.6634 11.2458 20.7335 11.3863C20.8968 11.5907 21.1889 11.6285 21.433 11.5869C21.5548 11.5692 21.7349 11.5417 21.7424 11.3853C21.7601 11.1319 21.8656 10.8832 21.8208 10.6279C21.5525 10.6139 21.2795 10.6041 21.0153 10.6611C20.8814 10.6909 20.7885 10.8132 20.7512 10.9387ZM24.2363 8.67539C24.8201 8.4612 25.4575 8.54799 26.0544 8.65767C26.1655 8.68706 26.2975 8.68613 26.3853 8.77108C26.4459 8.85366 26.417 8.96006 26.4039 9.05245C26.199 10.172 26.0185 11.2957 25.7963 12.4115C25.7273 12.7424 25.5723 13.0901 25.262 13.2581C24.8933 13.462 24.4561 13.4363 24.0487 13.4443C23.6744 13.4494 23.2675 13.3673 22.9949 13.0938C22.9231 12.9267 23.0346 12.7564 23.0934 12.6038C23.1807 12.6085 23.2689 12.6146 23.3538 12.6384C23.7813 12.7592 24.2381 12.7826 24.6763 12.714C24.9111 12.657 24.9568 12.3878 24.9764 12.1843C24.562 12.2412 24.1173 12.2683 23.7304 12.0783C23.4135 11.929 23.1928 11.6042 23.1662 11.2556C23.1209 10.6294 23.246 9.99842 23.4742 9.4165C23.6077 9.07488 23.8895 8.79722 24.2363 8.67543V8.67539ZM24.8621 9.22886C24.6264 9.2727 24.4155 9.41878 24.283 9.61618C24.1738 9.78651 24.142 9.99092 24.0977 10.1841C24.03 10.5327 23.9586 10.8925 24.0207 11.2467C24.0436 11.3989 24.1943 11.4796 24.331 11.5104C24.5727 11.5636 24.8271 11.5328 25.0646 11.4712C25.1444 11.4549 25.1472 11.3625 25.165 11.2995C25.2695 10.7166 25.3633 10.1323 25.4678 9.54945C25.4767 9.47201 25.5024 9.388 25.4631 9.31426C25.2844 9.21066 25.0627 9.19151 24.8621 9.22886H24.8621ZM28.076 8.55732C28.4377 8.49758 28.8273 8.53305 29.1517 8.71318C29.4727 8.89844 29.6818 9.25031 29.6986 9.61944C29.7191 10.0427 29.6346 10.4636 29.5311 10.8715C29.4391 11.2136 29.2958 11.5561 29.0299 11.8002C28.5721 12.2435 27.8562 12.3369 27.2663 12.1404C26.9396 12.0335 26.71 11.7344 26.6279 11.4091C26.4735 10.8435 26.6027 10.2476 26.7777 9.70204C26.9523 9.11636 27.4777 8.66602 28.076 8.5573L28.076 8.55732ZM28.0839 9.32732C27.8529 9.39453 27.6709 9.58726 27.5972 9.81359C27.474 10.1837 27.4003 10.5733 27.3979 10.9639C27.4031 11.1123 27.4278 11.2841 27.5538 11.3811C27.7209 11.5137 27.9523 11.4964 28.1502 11.4614C28.3434 11.4301 28.4923 11.2812 28.5735 11.1105C28.7671 10.7199 28.832 10.2793 28.8474 9.84766C28.8563 9.67779 28.8138 9.4818 28.6621 9.38333C28.4941 9.2648 28.2729 9.2732 28.0839 9.32734V9.32732ZM6.19215 10.6457C6.30088 10.3101 6.41429 9.97598 6.52442 9.64139C7.40222 9.64139 8.27955 9.64093 9.15735 9.64139C9.60114 9.64093 10.0622 9.75573 10.409 10.0446C10.6773 10.2569 10.8397 10.5794 10.9022 10.9112C11.0385 11.6238 10.8345 12.4045 10.3291 12.9314C9.87321 13.4228 9.21288 13.6808 8.55535 13.748C7.99347 13.7994 7.42881 13.7579 6.86695 13.7345C6.70503 14.3888 6.5739 15.051 6.42175 15.708C5.99755 15.6894 5.57335 15.6642 5.14917 15.6567C5.35544 14.6226 5.5953 13.595 5.80297 12.5609C6.50438 12.5525 7.20579 12.5594 7.90716 12.5576C7.9095 12.7732 7.90856 12.9892 7.90856 13.2053C8.49798 12.7055 9.07149 12.188 9.65669 11.6831C9.22223 11.1366 8.77983 10.5957 8.35049 10.0451C8.29168 10.242 8.2371 10.4403 8.18903 10.6401C7.52356 10.6494 6.8581 10.6391 6.19217 10.6457L6.19215 10.6457ZM19.5776 12.7037C19.9574 12.5114 20.4096 12.5142 20.8128 12.6267C20.8226 12.8021 20.8418 13.0107 20.7218 13.1545C20.5198 13.2529 20.2687 13.1773 20.0727 13.2954C19.9191 13.4307 19.9518 13.6617 19.9229 13.8451C20.1357 13.8713 20.3527 13.8479 20.5636 13.8946C20.5977 14.0789 20.6089 14.3034 20.4773 14.4518C20.2906 14.5689 20.0535 14.512 19.8449 14.5348C19.7922 14.6142 19.7474 14.7001 19.7357 14.7967C19.5766 15.6838 19.4268 16.5723 19.2672 17.4594C19.2 17.7623 19.1281 18.1016 18.8696 18.3023C18.6055 18.5085 18.248 18.5216 17.9274 18.5104C17.7963 18.4946 17.6283 18.5081 17.5448 18.3844C17.5116 18.2169 17.569 18.0507 17.6259 17.8949C17.807 17.8589 17.9974 17.8949 18.1747 17.8403C18.3623 17.7759 18.4001 17.557 18.4337 17.3876C18.557 16.6246 18.6941 15.8635 18.8304 15.1023C18.8575 14.9259 18.9084 14.75 18.9 14.5704C18.7254 14.505 18.5019 14.5619 18.367 14.4089C18.2574 14.2782 18.3077 14.0789 18.3824 13.9427C18.5336 13.7854 18.7726 13.9198 18.9569 13.8601C19.088 13.7854 19.0908 13.6146 19.1202 13.4835C19.1678 13.182 19.2943 12.8554 19.5776 12.7037V12.7037ZM29.2193 13.0233C29.2557 12.8768 29.2576 12.6733 29.4163 12.6024C29.6449 12.5781 29.8769 12.5912 30.1074 12.5888C30.2026 12.8521 30.0957 13.1241 30.0285 13.3799C29.7999 13.4387 29.5553 13.4326 29.3234 13.3985C29.1568 13.3565 29.2021 13.1489 29.2193 13.0233V13.0233ZM16.3473 12.7508C16.9189 12.6495 17.5041 12.6808 18.0777 12.748C18.1495 12.7573 18.22 12.7783 18.29 12.7984C18.3231 12.9753 18.3213 13.1666 18.241 13.3313C18.1846 13.4466 18.0436 13.4597 17.9311 13.4639C17.549 13.4713 17.1667 13.4559 16.7846 13.4694C16.6119 13.4783 16.4047 13.5269 16.3342 13.707C16.2059 14.0108 16.1909 14.3468 16.1396 14.6697C16.6599 14.6693 17.1803 14.6678 17.7006 14.6693C17.7855 14.665 17.9279 14.6851 17.9167 14.8004C17.9162 14.9478 17.8873 15.0948 17.8425 15.2353C17.8042 15.3506 17.674 15.3968 17.562 15.3911C17.1089 15.394 16.6553 15.3865 16.2017 15.3921C16.0822 15.3799 15.9711 15.4672 15.9655 15.5895C15.9291 15.8994 15.8339 16.2097 15.8657 16.5228C15.8801 16.6885 16.0612 16.7393 16.2007 16.744C16.6403 16.7538 17.0809 16.737 17.5205 16.7543C17.6194 16.7576 17.6031 16.878 17.6208 16.9475C17.6455 17.1351 17.5942 17.4044 17.3683 17.4342C16.7253 17.5024 16.0407 17.6125 15.4219 17.3605C15.1255 17.2438 14.9939 16.9172 14.9576 16.6222C14.9151 16.3721 14.9832 16.1243 15.0238 15.8789C15.1358 15.2372 15.2483 14.596 15.3682 13.9562C15.4247 13.664 15.5134 13.3658 15.7075 13.1335C15.8732 12.9435 16.0972 12.7984 16.3473 12.7508H16.3473ZM27.3536 13.2968C27.5995 13.1526 27.8986 13.1363 28.1777 13.1484C28.1857 13.3817 28.1007 13.6062 28.1119 13.8395C28.2939 13.8652 28.4857 13.8479 28.6607 13.9142C28.7704 13.9646 28.7508 14.1064 28.7316 14.2035C28.698 14.3351 28.649 14.5236 28.4782 14.519C28.3023 14.5587 28.0027 14.4536 27.9467 14.694C27.8412 15.2092 27.7628 15.73 27.6714 16.248C27.6401 16.429 27.6079 16.6106 27.6065 16.7949C27.7918 16.8584 27.9882 16.8402 28.1795 16.8267C28.3443 17.0759 28.1889 17.4753 27.8744 17.487C27.5673 17.4851 27.2219 17.5453 26.9578 17.3498C26.7595 17.2051 26.7194 16.9359 26.7525 16.7076C26.8435 15.9927 27.0078 15.2885 27.0932 14.5722C26.8948 14.519 26.6498 14.5661 26.4972 14.4028C26.4188 14.2605 26.43 14.0523 26.5429 13.9305C26.7347 13.8041 26.9821 13.9105 27.1874 13.8316C27.3232 13.6855 27.2364 13.4517 27.3535 13.2968H27.3536ZM21.7947 13.8582C22.1377 13.819 22.5194 13.7803 22.8255 13.9763C23.225 14.2227 23.3879 14.7229 23.3795 15.1719C23.3669 15.4257 23.3897 15.687 23.3118 15.933C22.9539 16.0053 22.5866 15.9605 22.2245 15.9727C21.8759 15.9802 21.5273 15.9578 21.1796 15.9797C21.0797 16.2233 21.1231 16.5481 21.3593 16.696C21.5399 16.7842 21.7489 16.7697 21.9449 16.7702C22.3104 16.7669 22.658 16.6428 23.0136 16.5766C23.0122 16.7996 23.0729 17.1006 22.8512 17.2425C22.6132 17.3745 22.3444 17.4389 22.0831 17.508C21.6939 17.6069 21.2655 17.5715 20.9136 17.3703C20.6038 17.2089 20.3597 16.9065 20.3214 16.5523C20.2458 15.8639 20.3854 15.1527 20.7111 14.5423C20.9244 14.1447 21.3574 13.9119 21.7947 13.8582H21.7947ZM21.5884 14.7183C21.4022 14.875 21.3261 15.1173 21.293 15.3506C21.7181 15.3553 22.1451 15.3725 22.5698 15.3399C22.6356 15.1494 22.6127 14.9334 22.4863 14.7733C22.2809 14.4942 21.8343 14.4933 21.5884 14.7182V14.7183ZM24.1364 14.4159C24.4262 13.9996 24.9531 13.8097 25.4468 13.8293C25.7249 13.8414 26.0105 13.8946 26.2546 14.0351C26.4413 14.1531 26.3073 14.3944 26.2826 14.5629C26.2695 14.7243 26.0703 14.6721 25.9616 14.6721C25.704 14.6847 25.473 14.4779 25.2163 14.5643C25.0035 14.6156 24.8182 14.7696 24.737 14.974C24.5532 15.4173 24.4738 15.9022 24.4888 16.3815C24.4855 16.5313 24.5653 16.6881 24.7174 16.731C25.0992 16.8542 25.4883 16.6978 25.864 16.626C25.8766 16.8313 25.9023 17.0572 25.7875 17.2406C25.6862 17.3736 25.5103 17.4123 25.3531 17.431C25.1505 17.4492 24.9489 17.4786 24.7464 17.4982C24.2704 17.5052 23.7939 17.1734 23.681 16.7021C23.6105 16.3273 23.6478 15.9405 23.7057 15.5667C23.7855 15.1644 23.9017 14.757 24.1365 14.4159H24.1364ZM34.5715 13.8568C34.9057 13.812 35.2613 13.8115 35.5786 13.9399C35.9351 14.1125 36.203 14.4863 36.2151 14.8877C36.2581 15.3805 36.1293 15.8658 35.993 16.3343C35.9001 16.6526 35.7266 16.955 35.4624 17.1603C35.0172 17.5126 34.3984 17.5948 33.8599 17.4427C33.5453 17.3666 33.3139 17.1015 33.1739 16.822C32.9774 16.402 33.089 15.9292 33.1655 15.4948C33.2486 15.0169 33.4301 14.5251 33.8058 14.2003C34.0209 14.0136 34.2911 13.8993 34.5715 13.8568ZM34.6588 14.5871C34.4082 14.6394 34.2094 14.8401 34.1221 15.0757C33.9901 15.4341 33.9289 15.8154 33.9037 16.1953C33.8949 16.3432 33.9168 16.5117 34.0367 16.6143C34.2561 16.7958 34.5818 16.7861 34.8268 16.6624C35.0149 16.5653 35.1259 16.3693 35.1726 16.1691C35.2566 15.7949 35.3943 15.422 35.3583 15.0323C35.3523 14.8947 35.2986 14.7523 35.1824 14.6711C35.0293 14.5713 34.8347 14.5512 34.6588 14.5871ZM29.1078 13.9137C29.3369 13.8395 29.588 13.8367 29.8241 13.8792C29.9562 13.8988 29.9039 14.0598 29.903 14.1503C29.7457 15.1163 29.559 16.0777 29.3967 17.0427C29.3715 17.1939 29.3668 17.423 29.1727 17.452C28.972 17.4725 28.7564 17.4917 28.5632 17.4207C28.5081 17.3297 28.5301 17.2196 28.5427 17.1211C28.6859 16.2816 28.8278 15.4416 28.9673 14.6016C29.007 14.371 29.0378 14.1377 29.1078 13.9137ZM30.2698 13.9245C30.3249 13.8675 30.4107 13.8717 30.4845 13.8638C30.6539 13.8596 30.828 13.8465 30.9941 13.8904C31.0837 13.9058 31.0655 14.0248 31.0841 14.0925C31.1187 14.6707 31.1387 15.2498 31.1668 15.8289C31.1845 16.1635 31.1854 16.5019 31.2661 16.829C31.4976 16.605 31.5732 16.283 31.6969 15.9969C31.9792 15.2997 32.2447 14.5955 32.549 13.9077C32.7959 13.8442 33.06 13.8451 33.3106 13.882C33.4371 13.9138 33.3708 14.0635 33.3372 14.1457C32.8967 15.1084 32.4739 16.08 32.0282 17.0409C31.8374 17.473 31.275 17.5976 30.8592 17.4562C30.645 17.3853 30.554 17.152 30.5335 16.9457C30.4318 16.0441 30.344 15.1416 30.2582 14.2385C30.2516 14.134 30.24 14.0262 30.2698 13.9245H30.2698Z" fill="black"/>
</g>
</g>
<defs>
<clipPath id="clip0_703_2874">
<rect width="39.8667" height="26" rx="3.46667" fill="white"/>
</clipPath>
<clipPath id="clip1_703_2874">
<rect width="39.6668" height="21" fill="white" transform="translate(0 2)"/>
</clipPath>
</defs>
</svg>
