<svg width="40" height="26" viewBox="0 0 40 26" fill="none" xmlns="http://www.w3.org/2000/svg">
<rect width="39.8667" height="26" rx="3.46667" fill="#00609C"/>
<g clip-path="url(#clip0_704_2993)">
<path d="M6.30856 8.53385C6.63367 8.53263 6.93312 8.5644 7.20689 8.62674C7.48067 8.68907 7.71656 8.79296 7.91578 8.93718C8.11501 9.0814 8.27023 9.27329 8.38145 9.51529C8.49389 9.75607 8.55012 10.0543 8.55012 10.41C8.55134 10.7656 8.48412 11.0834 8.34967 11.3645C8.21523 11.6456 8.03189 11.8827 7.80089 12.0758C7.56989 12.269 7.30345 12.4181 7.00278 12.5207C6.70212 12.6234 6.38312 12.676 6.04578 12.6772L4.29434 12.6808L3.81523 14.9933L2.40601 14.9957L3.72601 8.53874L6.30856 8.53385ZM5.97612 11.5735C6.33667 11.5723 6.62145 11.4806 6.82801 11.2961C7.03456 11.1115 7.13845 10.8255 7.13723 10.4405C7.13723 10.278 7.10789 10.1435 7.05045 10.0384C6.99301 9.93329 6.91601 9.8514 6.81945 9.79518C6.72289 9.73774 6.61656 9.6974 6.49923 9.67418C6.3819 9.64974 6.25967 9.63874 6.13378 9.63874L4.92378 9.64118L4.53145 11.5784L5.97612 11.5735Z" fill="white"/>
<path d="M8.76646 11.0027C8.90457 10.8072 9.07201 10.6495 9.26879 10.5297C9.46679 10.4099 9.68801 10.3232 9.93368 10.2718C10.1793 10.2205 10.4336 10.1948 10.6976 10.1936C10.9078 10.1936 11.1266 10.207 11.3539 10.2364C11.5812 10.2657 11.7915 10.3232 11.9821 10.4099C12.174 10.4967 12.3305 10.6189 12.4539 10.7766C12.5773 10.9343 12.636 11.1457 12.6299 11.4085C12.6299 11.6297 12.5981 11.89 12.5333 12.1907L12.1251 14.0607C12.1019 14.145 12.0848 14.2477 12.0762 14.3712C12.0677 14.4934 12.064 14.5997 12.064 14.6902C12.064 14.7672 12.0787 14.8576 12.1092 14.959L10.8308 14.9615L10.8296 14.5032C10.656 14.7024 10.4433 14.8478 10.1916 14.9419C9.93979 15.036 9.67946 15.0825 9.40935 15.0837C9.15757 15.0849 8.93635 15.0519 8.74813 14.9872C8.55868 14.9212 8.40101 14.8332 8.27513 14.7232C8.14924 14.6132 8.05513 14.4836 7.99524 14.3369C7.93535 14.1903 7.90479 14.0363 7.90479 13.8749C7.90357 13.4252 8.05757 13.0658 8.36557 12.7957C8.67357 12.5256 9.1099 12.3569 9.67457 12.2897C9.97401 12.253 10.2356 12.2249 10.458 12.2066C10.6792 12.1883 10.8638 12.1589 11.0117 12.1198C11.1583 12.0807 11.2683 12.0233 11.3392 11.9487C11.4113 11.8742 11.4468 11.7617 11.4468 11.6114C11.4468 11.4916 11.4187 11.3963 11.3649 11.3242C11.3111 11.2533 11.2439 11.1958 11.1632 11.1543C11.0826 11.1127 10.9958 11.0834 10.9017 11.0699C10.8088 11.0553 10.7208 11.0479 10.6365 11.0479C10.4091 11.0492 10.205 11.1042 10.0253 11.2154C9.84568 11.3266 9.73568 11.5002 9.69413 11.7336L8.49879 11.7373C8.53913 11.4427 8.62835 11.1983 8.76646 11.0027ZM10.6719 12.9094C10.4861 12.9314 10.3003 12.9473 10.1133 12.9595C9.99357 12.9717 9.87624 12.9913 9.76257 13.0182C9.6489 13.045 9.54868 13.0866 9.46068 13.1404C9.3739 13.1942 9.30301 13.2687 9.24924 13.3616C9.19546 13.4545 9.16857 13.573 9.16857 13.716C9.16857 13.8896 9.23946 14.0204 9.38124 14.1059C9.52301 14.1927 9.68679 14.2355 9.87257 14.2355C10.0706 14.2343 10.2368 14.2025 10.3725 14.1402C10.5069 14.0766 10.6206 13.9959 10.7135 13.8969C10.8063 13.7979 10.8797 13.6855 10.9335 13.5596C10.9872 13.4337 11.0312 13.3078 11.0679 13.1819L11.1938 12.7322C11.0325 12.8299 10.8577 12.8886 10.6719 12.9094Z" fill="white"/>
<path d="M14.0976 16.042C13.984 16.1703 13.8581 16.2718 13.7212 16.3439C13.5843 16.416 13.4266 16.4661 13.2494 16.493C13.0722 16.5199 12.8644 16.5345 12.6249 16.5345C12.5173 16.5345 12.4061 16.5297 12.2924 16.5174C12.1787 16.5064 12.0651 16.4979 11.9514 16.4918L12.1653 15.4272C12.2496 15.4272 12.334 15.4358 12.4207 15.4541C12.5075 15.4724 12.5931 15.481 12.6774 15.481C12.8265 15.4798 12.9475 15.4578 13.0367 15.4125C13.126 15.3673 13.1993 15.3135 13.2567 15.25C13.313 15.1877 13.3619 15.1192 13.3997 15.0483C13.4376 14.9774 13.4792 14.9139 13.5207 14.8601L12.6823 10.267L13.9937 10.2633L14.4069 13.5841H14.424L16.0251 10.2584L17.3732 10.2548L14.4289 15.5519C14.3213 15.7499 14.2113 15.9124 14.0976 16.042Z" fill="white"/>
<path d="M21.6413 9.94067C21.4323 9.74511 21.1609 9.64733 20.8261 9.64856C20.4741 9.64978 20.1673 9.73044 19.9057 9.893C19.6442 10.0543 19.4315 10.2633 19.2641 10.5176C19.0966 10.773 18.9732 11.0566 18.8913 11.3694C18.8094 11.6823 18.7703 11.9891 18.7703 12.2873C18.7715 12.5037 18.7996 12.709 18.8558 12.9021C18.9121 13.0952 18.9976 13.2663 19.1125 13.4154C19.2274 13.5646 19.3741 13.6819 19.5537 13.7699C19.7322 13.8579 19.9485 13.9007 20.2003 13.9007C20.3885 13.9007 20.5657 13.8664 20.7319 13.798C20.8994 13.7308 21.0473 13.6403 21.1756 13.5254C21.3039 13.4106 21.4127 13.2773 21.5007 13.1246C21.5887 12.9718 21.6462 12.8141 21.6755 12.6503L23.0566 12.6467C22.9173 13.0854 22.7523 13.4582 22.5628 13.7626C22.3734 14.0669 22.1595 14.315 21.9224 14.5057C21.6853 14.6963 21.4225 14.8344 21.1328 14.92C20.8432 15.0056 20.5278 15.0483 20.1881 15.0496C19.2971 15.052 18.6089 14.8161 18.1249 14.3443C17.6397 13.8713 17.3965 13.1881 17.3941 12.2922C17.3928 11.7826 17.4711 11.2998 17.6275 10.8427C17.7852 10.3868 18.0113 9.98344 18.3058 9.63389C18.6016 9.28556 18.9609 9.00811 19.3851 8.80156C19.8092 8.59622 20.2858 8.49233 20.8126 8.49111C21.1756 8.48989 21.5129 8.54 21.8234 8.63778C22.1338 8.73556 22.4027 8.88344 22.6288 9.07778C22.8549 9.27333 23.0297 9.51533 23.1544 9.805C23.2778 10.0947 23.3377 10.4296 23.3328 10.8097L21.9554 10.8133C21.9542 10.4271 21.8491 10.135 21.6413 9.94067Z" fill="#00CD68"/>
<path d="M23.8033 10.9674C23.9402 10.7718 24.1077 10.6142 24.3057 10.4944C24.5037 10.3746 24.7249 10.2878 24.9705 10.2365C25.2162 10.1852 25.4704 10.1595 25.7344 10.1583C25.9447 10.1571 26.1634 10.1717 26.3908 10.2011C26.6181 10.2304 26.8283 10.2878 27.0202 10.3746C27.2121 10.4614 27.3685 10.5836 27.492 10.7413C27.6142 10.9002 27.6729 11.1104 27.668 11.3744C27.668 11.5956 27.6362 11.8559 27.5714 12.1566L27.1632 14.0254C27.1388 14.1097 27.1229 14.2124 27.1143 14.3358C27.1058 14.4593 27.1021 14.5656 27.1021 14.6548C27.1021 14.7318 27.1168 14.8223 27.1473 14.9237L25.8689 14.9262L25.8677 14.4678C25.6941 14.6658 25.4814 14.8125 25.2297 14.9066C24.9779 15.0007 24.7175 15.0472 24.4474 15.0484C24.1957 15.0484 23.9744 15.0166 23.7862 14.9518C23.5968 14.8858 23.4391 14.7978 23.3132 14.6878C23.1873 14.5778 23.0932 14.4483 23.0333 14.3028C22.9734 14.1562 22.9429 14.0022 22.9429 13.8408C22.9417 13.3911 23.0957 13.0317 23.4037 12.7616C23.7117 12.4915 24.148 12.3228 24.7127 12.2556C25.0121 12.2189 25.2737 12.1908 25.4961 12.1725C25.7173 12.1542 25.9019 12.1248 26.0498 12.0857C26.1964 12.0466 26.3052 11.9892 26.3773 11.9146C26.4494 11.8401 26.4849 11.7264 26.4849 11.5773C26.4849 11.4575 26.458 11.3622 26.403 11.2901C26.3492 11.2192 26.2808 11.1617 26.2001 11.1202C26.1194 11.0786 26.0327 11.0505 25.9398 11.0358C25.8469 11.0212 25.7589 11.0138 25.6745 11.0138C25.4472 11.0151 25.2431 11.0701 25.0634 11.1813C24.8838 11.2925 24.7738 11.4661 24.7322 11.6995L23.5369 11.7032C23.576 11.4074 23.6652 11.1629 23.8033 10.9674ZM25.7088 12.8741C25.523 12.8961 25.3372 12.9119 25.1502 12.9242C25.0304 12.9364 24.9131 12.9559 24.7994 12.9828C24.6858 13.0097 24.5855 13.0513 24.4975 13.1051C24.4108 13.1588 24.3399 13.2334 24.2861 13.3263C24.2323 13.4192 24.2054 13.5377 24.2054 13.6807C24.2054 13.8543 24.2763 13.9851 24.4181 14.0706C24.5599 14.1574 24.7237 14.2002 24.9094 14.1989C25.1074 14.1989 25.2749 14.1672 25.4093 14.1036C25.5438 14.0401 25.6574 13.9594 25.7503 13.8604C25.8432 13.7614 25.9165 13.6489 25.9703 13.5231C26.0241 13.3972 26.0681 13.2713 26.1048 13.1454L26.2294 12.6956C26.0693 12.7934 25.8945 12.8533 25.7088 12.8741Z" fill="#00CD68"/>
<path d="M30.5817 11.1653C30.4705 11.0553 30.2896 11.0003 30.0378 11.0003C29.8092 11.0016 29.6222 11.0358 29.4768 11.1054C29.3301 11.1751 29.2568 11.2937 29.2568 11.4611C29.2568 11.5626 29.3008 11.6493 29.3876 11.7214C29.4743 11.7936 29.6259 11.8608 29.841 11.9268L30.479 12.1321C30.6526 12.1859 30.8127 12.2482 30.9606 12.3191C31.1072 12.3912 31.2368 12.4792 31.348 12.5831C31.4592 12.6882 31.546 12.8117 31.6096 12.9559C31.6731 13.1001 31.7049 13.2663 31.7049 13.4582C31.7061 13.7454 31.6413 13.9899 31.513 14.1903C31.3847 14.3908 31.216 14.5546 31.007 14.6817C30.7968 14.8076 30.5609 14.898 30.2969 14.953C30.0329 15.0068 29.7665 15.0349 29.4963 15.0349C29.269 15.0361 29.038 15.0117 28.8033 14.9652C28.5699 14.9176 28.3585 14.8393 28.169 14.7293C27.9796 14.6193 27.8256 14.4727 27.7046 14.2906C27.5848 14.1084 27.5237 13.8799 27.5237 13.6049V13.4167L28.7007 13.4142V13.5658C28.7007 13.6733 28.7276 13.765 28.7826 13.8432C28.8363 13.9202 28.9072 13.985 28.994 14.0351C29.0808 14.0852 29.1798 14.1243 29.291 14.15C29.4022 14.1769 29.5122 14.1903 29.6198 14.1891C29.7151 14.1891 29.8117 14.1793 29.907 14.161C30.0023 14.1427 30.0891 14.1109 30.1673 14.0657C30.2443 14.0204 30.3079 13.9642 30.3556 13.8946C30.4032 13.8261 30.4265 13.7369 30.4265 13.6293C30.4265 13.468 30.3837 13.3543 30.2993 13.2883C30.215 13.2223 30.105 13.1661 29.9669 13.1184L28.9867 12.8068C28.8253 12.753 28.6823 12.6968 28.5601 12.6369C28.4367 12.577 28.3328 12.5024 28.2448 12.4132C28.158 12.324 28.0908 12.2164 28.0468 12.0906C28.0016 11.9647 27.9783 11.8094 27.9783 11.6237C27.9771 11.3487 28.0419 11.1177 28.1702 10.9319C28.2986 10.7461 28.4648 10.5946 28.6689 10.4772C28.873 10.3599 29.0955 10.2756 29.3387 10.2242C29.5819 10.1729 29.8129 10.146 30.0353 10.146C30.2859 10.146 30.5291 10.1656 30.7638 10.2071C30.9972 10.2487 31.2026 10.3244 31.3798 10.4344C31.557 10.5444 31.6963 10.6948 31.799 10.8867C31.9017 11.0773 31.9493 11.323 31.9445 11.6224L30.7577 11.6249C30.7528 11.4306 30.6929 11.2766 30.5817 11.1653Z" fill="#00CD68"/>
<path d="M34.2913 8.46545L33.8171 10.7889H33.8354C33.8831 10.7229 33.9528 10.6496 34.042 10.5713C34.1324 10.4931 34.2412 10.4198 34.3671 10.3526C34.493 10.2866 34.6409 10.2291 34.8096 10.1839C34.9782 10.1387 35.1677 10.1155 35.3791 10.1142C36.2897 10.1118 36.7455 10.5298 36.748 11.3658C36.748 11.4135 36.7419 11.4758 36.7309 11.5516C36.7187 11.6261 36.7052 11.7031 36.6905 11.7813C36.6759 11.8596 36.66 11.9329 36.6453 12.0026C36.6307 12.0722 36.6197 12.1285 36.6136 12.17L36.0415 14.9066L34.757 14.9102L35.3204 12.1749C35.3314 12.1028 35.3485 12.0062 35.3693 11.8865C35.3901 11.7667 35.4011 11.6726 35.4011 11.6066C35.4011 11.4685 35.3351 11.3536 35.2055 11.2643C35.076 11.1751 34.9354 11.1299 34.7851 11.1299C34.592 11.1299 34.4221 11.169 34.2742 11.2436C34.1263 11.3193 34.0004 11.4171 33.8953 11.5381C33.7902 11.6591 33.7034 11.7972 33.6338 11.9537C33.5641 12.1101 33.5128 12.269 33.4761 12.4328L32.9579 14.9151L31.6831 14.9176L33.0055 8.4679L34.2913 8.46545Z" fill="#00CD68"/>
<path d="M38.2609 14.179C38.2609 14.5885 37.9284 14.9209 37.519 14.9209C37.1095 14.9209 36.7771 14.5885 36.7771 14.179C36.7771 13.7696 37.1095 13.4371 37.519 13.4371C37.9284 13.4371 38.2609 13.7696 38.2609 14.179Z" fill="#00CD68"/>
<path d="M38.1363 14.1791C38.1363 14.5201 37.8601 14.7963 37.5191 14.7963C37.1781 14.7963 36.9019 14.5201 36.9019 14.1791C36.9019 13.8381 37.1781 13.5619 37.5191 13.5619C37.8601 13.5607 38.1363 13.8381 38.1363 14.1791Z" fill="white"/>
<path d="M37.196 14.1898V13.7914L37.372 13.7926C37.5468 13.7938 37.5603 13.7938 37.6043 13.7987C37.6715 13.8073 37.7118 13.8244 37.7485 13.861C37.7668 13.8794 37.779 13.8977 37.79 13.9209C37.8047 13.9527 37.8108 13.9759 37.8108 14.0089C37.8108 14.0652 37.79 14.1153 37.7509 14.158C37.7094 14.202 37.6642 14.2228 37.5933 14.2326L37.5835 14.2338L37.6018 14.2424C37.6336 14.2583 37.6458 14.2693 37.6776 14.3047C37.7069 14.3389 37.735 14.3793 37.7827 14.4563C37.7998 14.4844 37.8243 14.5235 37.8377 14.5443C37.8499 14.565 37.8622 14.5834 37.8634 14.5858L37.8658 14.5895H37.7876H37.7094L37.6984 14.5712C37.6923 14.5602 37.6849 14.5479 37.6825 14.5418C37.68 14.5357 37.6739 14.5259 37.669 14.5174C37.614 14.4184 37.6055 14.4037 37.5823 14.3695C37.5456 14.3145 37.515 14.2815 37.4857 14.2668C37.4613 14.2546 37.4368 14.2509 37.3733 14.2509H37.3256V14.4196V14.5883H37.262H37.1985V14.1898H37.196Z" fill="#00CD68"/>
<path d="M37.5432 14.1374C37.5775 14.1325 37.5946 14.1276 37.6154 14.1178C37.6239 14.1142 37.63 14.1093 37.6398 14.0995C37.6618 14.0775 37.6716 14.0555 37.6728 14.0237C37.674 14.0078 37.6728 14.0029 37.6703 13.9919C37.6618 13.9589 37.6422 13.9345 37.6129 13.9198C37.5946 13.91 37.5799 13.9064 37.553 13.9027C37.5384 13.9003 37.5139 13.9003 37.4296 13.899L37.3245 13.8978V14.0188V14.1398L37.4247 14.1386C37.5029 14.1398 37.5286 14.1386 37.5432 14.1374Z" fill="white"/>
</g>
<defs>
<clipPath id="clip0_704_2993">
<rect width="36.6667" height="11" fill="white" transform="translate(2 7)"/>
</clipPath>
</defs>
</svg>
