<svg width="40" height="26" viewBox="0 0 40 26" fill="none" xmlns="http://www.w3.org/2000/svg">
<rect width="39.8667" height="26" rx="3.46667" fill="#21C25E"/>
<path d="M10.2071 16.3822H11.8V11.7341H10.2071V16.3822ZM12.3513 8.57118H11.2778V9.64512H12.3513V8.57118ZM6.33047 9.0936H4.7909V10.4416H6.2207C7.12796 10.4416 7.65015 10.8816 7.65015 11.7068C7.65015 12.532 7.12796 12.9993 6.2207 12.9993H4.7909V10.4703H3.198V16.3822H4.7909V14.3469H6.30311C8.14499 14.3469 9.21742 13.3568 9.21742 11.6517C9.21742 10.0563 8.17269 9.0936 6.33047 9.0936ZM13.4237 7.5H10.2071V10.7163H13.4237V7.5ZM12.9012 10.1675H10.757V8.02104H12.9012V10.1675ZM22.2487 9.0936H20.7916V10.4416H22.166C23.0732 10.4416 23.5958 10.8816 23.5958 11.7068C23.5958 12.532 23.0732 12.9993 22.166 12.9993H20.7916V10.4703H19.1987V16.3822H20.7916V14.3469H22.2487C24.0906 14.3469 25.1627 13.3568 25.1627 11.6517C25.1627 10.0563 24.0906 9.0936 22.2487 9.0936ZM35.6374 10.7991L34.2626 14.2634L32.8879 10.7991H31.2386L33.4378 16.3822L32.5856 18.5H34.2626L37.2867 10.7991H35.6374ZM28.4894 10.7714C27.5271 10.7714 26.7847 10.9914 25.9598 11.404L26.455 12.5043C27.0323 12.1741 27.6095 12.0092 28.1317 12.0092C28.9015 12.0092 29.2866 12.3393 29.2866 12.9446V13.0547H27.746C26.3712 13.0547 25.6291 13.6873 25.6291 14.7325C25.6291 15.75 26.3439 16.4647 27.5534 16.4647C28.3232 16.4647 28.8731 16.19 29.3129 15.7223V16.3272H30.8802V12.6969C30.8279 11.5141 29.9739 10.7714 28.4894 10.7714ZM29.4244 14.5129C29.2596 14.9802 28.7921 15.3655 28.1321 15.3655C27.5825 15.3655 27.2525 15.0904 27.2525 14.6504C27.2525 14.2104 27.5548 14.0178 28.1598 14.0178H29.4244V14.5129ZM15.8702 15.1721C15.1004 15.1721 14.5509 14.5669 14.5509 13.6593C14.5509 12.7793 15.1004 12.1741 15.8702 12.1741C16.4201 12.1741 16.8325 12.3941 17.1352 12.7793L18.2086 12.0092C17.7138 11.2664 16.8616 10.8265 15.7892 10.8265C14.1121 10.7991 12.9576 11.9541 12.9576 13.6593C12.9576 15.3644 14.1121 16.4924 15.7892 16.4924C16.944 16.4924 17.7976 16.0247 18.2637 15.2546L17.1639 14.5122C16.8876 14.9522 16.4478 15.1721 15.8702 15.1721Z" fill="white"/>
</svg>
