<svg width="40" height="26" viewBox="0 0 40 26" fill="none" xmlns="http://www.w3.org/2000/svg">
<rect width="39.8667" height="26" rx="3.46667" fill="#32BCAD"/>
<g clip-path="url(#clip0_140_3423)">
<mask id="mask0_140_3423" style="mask-type:luminance" maskUnits="userSpaceOnUse" x="3" y="7" width="34" height="12">
<path d="M36.8046 7H3V18.9803H36.8046V7Z" fill="white"/>
</mask>
<g mask="url(#mask0_140_3423)">
<path d="M16.9087 18.1864V11.3159C16.9087 10.0517 17.9335 9.02686 19.1976 9.02686L21.2262 9.02991C22.4867 9.03241 23.5073 10.055 23.5073 11.3155V12.7779C23.5073 14.0421 22.4824 15.0669 21.2182 15.0669H18.3517" stroke="white" stroke-width="0.423171" stroke-miterlimit="10" stroke-linecap="round" stroke-linejoin="round"/>
<path d="M24.074 9.026H24.9539C25.4727 9.026 25.8933 9.44657 25.8933 9.96539V15.0977" stroke="white" stroke-width="0.423171" stroke-miterlimit="10" stroke-linecap="round" stroke-linejoin="round"/>
<path d="M25.7046 8.23088L25.3055 7.83179C25.2064 7.73278 25.2064 7.57223 25.3055 7.47322L25.7043 7.07437C25.8035 6.97521 25.9643 6.97521 26.0634 7.07437L26.4622 7.47322C26.5612 7.57223 26.5612 7.73278 26.4622 7.83179L26.0631 8.23088C25.9641 8.32989 25.8036 8.32989 25.7046 8.23088Z" fill="white"/>
<path d="M27.5815 9.02148H28.4542C28.9032 9.02148 29.3337 9.19984 29.6511 9.51723L31.6923 11.5584C31.9567 11.8228 32.3853 11.8228 32.6498 11.5584L34.6835 9.52471C35.0009 9.20732 35.4314 9.02896 35.8804 9.02896H36.5899" stroke="white" stroke-width="0.423171" stroke-miterlimit="10" stroke-linecap="round" stroke-linejoin="round"/>
<path d="M27.5815 15.0529H28.4542C28.9032 15.0529 29.3337 14.8745 29.6511 14.5571L31.6923 12.516C31.9567 12.2515 32.3853 12.2515 32.6498 12.516L34.6835 14.5496C35.0009 14.8671 35.4314 15.0454 35.8804 15.0454H36.5899" stroke="white" stroke-width="0.423171" stroke-miterlimit="10" stroke-linecap="round" stroke-linejoin="round"/>
<path d="M11.706 16.3568C11.2681 16.3568 10.8561 16.1863 10.5464 15.8767L8.87205 14.2023C8.75446 14.0844 8.54959 14.0848 8.43207 14.2023L6.75157 15.8828C6.44185 16.1924 6.02991 16.363 5.59194 16.363H5.26196L7.38266 18.4836C8.04491 19.1458 9.11871 19.1458 9.78104 18.4836L11.9077 16.3568H11.706Z" fill="white"/>
<path d="M5.59184 10.4342C6.02981 10.4342 6.44175 10.6047 6.75147 10.9143L8.43196 12.5951C8.55301 12.7162 8.75062 12.7166 8.87194 12.595L10.5463 10.9204C10.856 10.6109 11.268 10.4403 11.7059 10.4403H11.9076L9.78096 8.31363C9.11859 7.65132 8.0448 7.65132 7.38254 8.31363L5.26196 10.4342L5.59184 10.4342Z" fill="white"/>
<path d="M13.6667 12.1993L12.3816 10.9142C12.3533 10.9255 12.3226 10.9326 12.2903 10.9326H11.7059C11.4038 10.9326 11.1081 11.0551 10.8946 11.2687L9.22033 12.9431C9.06365 13.0998 8.85773 13.1782 8.65204 13.1782C8.44616 13.1782 8.24043 13.0998 8.08379 12.9433L6.40312 11.2626C6.18965 11.049 5.89393 10.9265 5.59183 10.9265H4.87334C4.84269 10.9265 4.81405 10.9193 4.78702 10.9091L3.49674 12.1993C2.83442 12.8617 2.83442 13.9354 3.49674 14.5977L4.78697 15.888C4.81405 15.8778 4.84269 15.8705 4.87334 15.8705H5.59183C5.89393 15.8705 6.18965 15.7481 6.40312 15.5345L8.08364 13.8539C8.38736 13.5504 8.91687 13.5504 9.22033 13.8541L10.8946 15.5283C11.1081 15.742 11.4038 15.8645 11.7059 15.8645H12.2903C12.3226 15.8645 12.3533 15.8716 12.3816 15.8829L13.6667 14.5977C14.329 13.9354 14.329 12.8617 13.6667 12.1993Z" fill="white"/>
<path d="M18.6531 17.6025C18.5582 17.6025 18.4479 17.6253 18.3387 17.6505V18.0691C18.4143 18.0968 18.5006 18.1101 18.5835 18.1101C18.7934 18.1101 18.893 18.0392 18.893 17.8543C18.893 17.6805 18.8114 17.6025 18.6531 17.6025ZM18.2678 18.38V17.552H18.3255L18.3315 17.5881C18.4286 17.5653 18.563 17.5353 18.659 17.5353C18.7371 17.5353 18.8114 17.5472 18.8738 17.5976C18.9458 17.6565 18.9686 17.7512 18.9686 17.8543C18.9686 17.9625 18.9326 18.0644 18.8342 18.1208C18.7658 18.1592 18.6735 18.1748 18.5906 18.1748C18.5054 18.1748 18.4239 18.1615 18.3387 18.1364V18.38H18.2678Z" fill="white"/>
<path d="M19.4957 17.6C19.2857 17.6 19.1921 17.6661 19.1921 17.8509C19.1921 18.0296 19.2845 18.1101 19.4957 18.1101C19.7044 18.1101 19.798 18.0452 19.798 17.8604C19.798 17.6817 19.7057 17.6 19.4957 17.6ZM19.7656 18.1101C19.696 18.1604 19.6025 18.1748 19.4957 18.1748C19.3865 18.1748 19.2928 18.1592 19.2245 18.1101C19.1477 18.0561 19.1165 17.9672 19.1165 17.8557C19.1165 17.7452 19.1477 17.6554 19.2245 17.6C19.2928 17.5509 19.3865 17.5353 19.4957 17.5353C19.6036 17.5353 19.696 17.5509 19.7656 17.6C19.8437 17.6554 19.8736 17.7452 19.8736 17.8544C19.8736 17.9661 19.8424 18.0561 19.7656 18.1101Z" fill="white"/>
<path d="M20.7599 18.158L20.5259 17.6553H20.521L20.2907 18.158H20.2271L19.9775 17.552H20.0555L20.2631 18.0607H20.2679L20.4935 17.552H20.5583L20.7899 18.0607H20.7947L20.9975 17.552H21.073L20.8235 18.158H20.7599Z" fill="white"/>
<path d="M21.5255 17.5989C21.3311 17.5989 21.2651 17.6852 21.2531 17.8101H21.7979C21.7919 17.6721 21.721 17.5989 21.5255 17.5989ZM21.5231 18.1748C21.4066 18.1748 21.3311 18.158 21.2711 18.1076C21.2003 18.0464 21.1763 17.9576 21.1763 17.8557C21.1763 17.7585 21.2087 17.6553 21.2892 17.5965C21.3563 17.5497 21.4391 17.5353 21.5255 17.5353C21.6035 17.5353 21.6935 17.5437 21.7678 17.5941C21.8555 17.6529 21.8723 17.7561 21.8723 17.8736H21.2507C21.2531 17.9984 21.2939 18.1089 21.529 18.1089C21.6407 18.1089 21.745 18.0908 21.8423 18.074V18.1376C21.7414 18.1557 21.6299 18.1748 21.5231 18.1748Z" fill="white"/>
<path d="M22.0754 18.158V17.5521H22.133L22.1391 17.5881C22.2674 17.5557 22.3274 17.5353 22.4402 17.5353H22.4486V17.6025H22.4318C22.3371 17.6025 22.2795 17.6156 22.1463 17.6505V18.158H22.0754Z" fill="white"/>
<path d="M22.8599 17.5989C22.6656 17.5989 22.5996 17.6852 22.5875 17.8101H23.1323C23.1264 17.6721 23.0555 17.5989 22.8599 17.5989ZM22.8576 18.1748C22.7411 18.1748 22.6656 18.158 22.6056 18.1076C22.5347 18.0464 22.5107 17.9576 22.5107 17.8557C22.5107 17.7585 22.5432 17.6553 22.6236 17.5965C22.6907 17.5497 22.7735 17.5353 22.8599 17.5353C22.938 17.5353 23.0279 17.5437 23.1023 17.5941C23.1899 17.6529 23.2067 17.7561 23.2067 17.8736H22.5852C22.5875 17.9984 22.6283 18.1089 22.8635 18.1089C22.9751 18.1089 23.0794 18.0908 23.1767 18.074V18.1376C23.0759 18.1557 22.9643 18.1748 22.8576 18.1748Z" fill="white"/>
<path d="M23.9822 17.6409C23.9067 17.6132 23.8203 17.6 23.7375 17.6C23.5275 17.6 23.4279 17.671 23.4279 17.8557C23.4279 18.0308 23.5095 18.1075 23.6678 18.1075C23.7627 18.1075 23.8731 18.0847 23.9822 18.0607V17.6409ZM23.9955 18.158L23.9895 18.122C23.8923 18.1448 23.7578 18.1748 23.6618 18.1748C23.584 18.1748 23.5095 18.164 23.4471 18.1124C23.3751 18.0536 23.3523 17.9588 23.3523 17.8557C23.3523 17.7477 23.3883 17.6456 23.4867 17.5905C23.5551 17.5509 23.6474 17.5353 23.7315 17.5353C23.8155 17.5353 23.8971 17.5497 23.9822 17.5737V17.2965H24.0531V18.158H23.9955Z" fill="white"/>
<path d="M25.0911 17.6025C24.9962 17.6025 24.8858 17.6253 24.7766 17.6505V18.068C24.8535 18.0968 24.9386 18.1101 25.0214 18.1101C25.2314 18.1101 25.3309 18.0393 25.3309 17.8543C25.3309 17.6805 25.2494 17.6025 25.0911 17.6025ZM25.2722 18.1208C25.2038 18.1592 25.1114 18.1748 25.0286 18.1748C24.9386 18.1748 24.8486 18.1592 24.7575 18.1292L24.7538 18.158H24.7058V17.2965H24.7766V17.5856C24.8738 17.5641 25.0046 17.5353 25.097 17.5353C25.1751 17.5353 25.2494 17.5472 25.3118 17.5976C25.3838 17.6565 25.4066 17.7512 25.4066 17.8543C25.4066 17.9625 25.3705 18.0644 25.2722 18.1208Z" fill="white"/>
<path d="M25.5005 18.3907V18.3248C25.5352 18.3283 25.5677 18.3308 25.5905 18.3308C25.6781 18.3308 25.7308 18.3056 25.78 18.2059L25.8028 18.158L25.4861 17.552H25.5677L25.8389 18.0751H25.8437L26.1016 17.552H26.182L25.8413 18.2324C25.7789 18.356 25.7116 18.3967 25.5881 18.3967C25.5604 18.3967 25.5305 18.3944 25.5005 18.3907Z" fill="white"/>
<path d="M27.158 17.8124H26.9229V18.0249H27.1591C27.3212 18.0249 27.3824 18.0068 27.3824 17.918C27.3824 17.8231 27.2984 17.8124 27.158 17.8124ZM27.1149 17.468H26.9229V17.6839H27.116C27.2756 17.6839 27.3392 17.6648 27.3392 17.5748C27.3392 17.4789 27.2588 17.468 27.1149 17.468ZM27.4796 18.1004C27.3931 18.1556 27.2888 18.158 27.098 18.158H26.7393V17.3361H27.0896C27.254 17.3361 27.3548 17.3384 27.4388 17.3889C27.4988 17.4249 27.5228 17.4801 27.5228 17.5521C27.5228 17.6384 27.4868 17.6961 27.3931 17.7345V17.7392C27.4988 17.7633 27.5672 17.8173 27.5672 17.9337C27.5672 18.0128 27.5384 18.0644 27.4796 18.1004Z" fill="white"/>
<path d="M28.2847 17.9037C28.2138 17.8976 28.1419 17.8941 28.0663 17.8941C27.9428 17.8941 27.8995 17.9193 27.8995 17.9756C27.8995 18.0284 27.9355 18.0573 28.0303 18.0573C28.1095 18.0573 28.2043 18.0393 28.2847 18.0212V17.9037ZM28.3207 18.158L28.3159 18.122C28.2126 18.1473 28.0927 18.1748 27.9871 18.1748C27.9222 18.1748 27.8527 18.1664 27.8035 18.1304C27.758 18.098 27.7363 18.0452 27.7363 17.984C27.7363 17.9156 27.7663 17.852 27.8383 17.8197C27.9019 17.7897 27.9871 17.7873 28.0651 17.7873C28.1287 17.7873 28.2138 17.7908 28.2847 17.7957V17.7848C28.2847 17.6901 28.2223 17.6589 28.0519 17.6589C27.9859 17.6589 27.9055 17.6624 27.8287 17.6696V17.5472C27.9138 17.5401 28.0099 17.5353 28.0891 17.5353C28.1947 17.5353 28.3039 17.5437 28.3711 17.5916C28.4406 17.6409 28.4539 17.7093 28.4539 17.7992V18.158L28.3207 18.158Z" fill="white"/>
<path d="M29.2452 18.158V17.8232C29.2452 17.7129 29.1888 17.6733 29.088 17.6733C29.0136 17.6733 28.9201 17.6924 28.8408 17.7117V18.158H28.6716V17.5521H28.8096L28.8156 17.5905C28.9224 17.5629 29.0412 17.5353 29.1396 17.5353C29.214 17.5353 29.2896 17.546 29.3472 17.5977C29.3951 17.6409 29.4132 17.7008 29.4132 17.7873V18.158H29.2452Z" fill="white"/>
<path d="M29.8912 18.1748C29.8132 18.1748 29.7279 18.164 29.6656 18.1112C29.5912 18.0512 29.5696 17.9564 29.5696 17.8543C29.5696 17.7584 29.6008 17.654 29.6932 17.5952C29.7688 17.546 29.8623 17.5353 29.9595 17.5353C30.0292 17.5353 30.0976 17.5401 30.1731 17.5472V17.6768C30.1119 17.6709 30.0387 17.666 29.9799 17.666C29.8191 17.666 29.7436 17.7165 29.7436 17.8557C29.7436 17.9865 29.8 18.0428 29.9319 18.0428C30.0087 18.0428 30.0988 18.0284 30.1864 18.0116V18.1363C30.0915 18.1557 29.9883 18.1748 29.8912 18.1748Z" fill="white"/>
<path d="M30.6861 17.6624C30.5253 17.6624 30.4545 17.7128 30.4545 17.8508C30.4545 17.9889 30.5241 18.0477 30.6861 18.0477C30.8457 18.0477 30.9152 17.9984 30.9152 17.8604C30.9152 17.7224 30.8469 17.6624 30.6861 17.6624ZM30.9765 18.1112C30.9021 18.1615 30.8049 18.1748 30.6861 18.1748C30.5649 18.1748 30.4677 18.1604 30.3946 18.1112C30.3105 18.0561 30.2805 17.9649 30.2805 17.8557C30.2805 17.7464 30.3105 17.654 30.3946 17.5989C30.4677 17.5497 30.5649 17.5353 30.6861 17.5353C30.8061 17.5353 30.9021 17.5497 30.9765 17.5989C31.0605 17.654 31.0893 17.7464 31.0893 17.8544C31.0893 17.9637 31.0593 18.0561 30.9765 18.1112Z" fill="white"/>
<path d="M32.0661 18.1747C31.9642 18.1747 31.8538 18.1579 31.7709 18.0895C31.6726 18.0079 31.6426 17.8819 31.6426 17.7462C31.6426 17.6252 31.6809 17.4812 31.8093 17.3972C31.9089 17.3325 32.0325 17.3192 32.1573 17.3192C32.2486 17.3192 32.3421 17.3252 32.4441 17.3336V17.4812C32.3565 17.474 32.2486 17.468 32.1645 17.468C31.9305 17.468 31.8309 17.5568 31.8309 17.7463C31.8309 17.9396 31.9233 18.026 32.0961 18.026C32.2089 18.026 32.3349 18.0032 32.4621 17.9767V18.1231C32.3349 18.1484 32.2017 18.1747 32.0661 18.1747Z" fill="white"/>
<path d="M32.9593 17.6433C32.8189 17.6433 32.7649 17.6937 32.7541 17.7861H33.1621C33.1572 17.6877 33.0997 17.6433 32.9593 17.6433ZM32.9341 18.1748C32.8345 18.1748 32.7445 18.1629 32.6773 18.1076C32.6053 18.0477 32.5801 17.9576 32.5801 17.8544C32.5801 17.762 32.6101 17.6589 32.6941 17.5988C32.7685 17.5461 32.8633 17.5353 32.9593 17.5353C33.0457 17.5353 33.1477 17.5449 33.2221 17.5965C33.3193 17.6649 33.3277 17.7705 33.3288 17.8952H32.7529C32.7565 17.9877 32.8057 18.0477 32.9761 18.0477C33.0817 18.0477 33.1992 18.0321 33.2989 18.0165V18.1352C33.1825 18.1545 33.0553 18.1748 32.9341 18.1748Z" fill="white"/>
<path d="M34.0814 18.158V17.8232C34.0814 17.7129 34.0251 17.6733 33.9242 17.6733C33.8498 17.6733 33.7562 17.6924 33.677 17.7117V18.158H33.5078V17.5521H33.6458L33.6518 17.5905C33.7586 17.5629 33.8774 17.5353 33.9758 17.5353C34.0502 17.5353 34.1258 17.546 34.1834 17.5977C34.2313 17.6409 34.2494 17.7008 34.2494 17.7873V18.158H34.0814Z" fill="white"/>
<path d="M34.731 18.1748C34.6494 18.1748 34.575 18.1519 34.5342 18.0884C34.5042 18.0451 34.4898 17.9865 34.4898 17.9048V17.678H34.3674V17.552H34.4898L34.5079 17.3684H34.6578V17.552H34.8966V17.678H34.6578V17.8724C34.6578 17.9192 34.6614 17.9588 34.6746 17.9876C34.6926 18.0284 34.7322 18.0439 34.785 18.0439C34.8246 18.0439 34.8726 18.038 34.9062 18.0321V18.1531C34.851 18.1641 34.7873 18.1748 34.731 18.1748Z" fill="white"/>
<path d="M35.0618 18.158V17.5521H35.1998L35.2058 17.5905C35.3174 17.5593 35.4002 17.5353 35.5058 17.5353C35.5106 17.5353 35.5178 17.5353 35.5273 17.5364V17.6805C35.5081 17.6794 35.4853 17.6794 35.4685 17.6794C35.3857 17.6794 35.3234 17.6889 35.2309 17.7105V18.158H35.0618Z" fill="white"/>
<path d="M36.1424 17.9037C36.0715 17.8976 35.9996 17.8941 35.924 17.8941C35.8004 17.8941 35.7571 17.9193 35.7571 17.9756C35.7571 18.0284 35.7932 18.0573 35.8879 18.0573C35.9672 18.0573 36.0619 18.0393 36.1424 18.0212V17.9037ZM36.1783 18.158L36.1736 18.122C36.0704 18.1473 35.9504 18.1748 35.8448 18.1748C35.78 18.1748 35.7104 18.1664 35.6611 18.1304C35.6156 18.098 35.594 18.0452 35.594 17.984C35.594 17.9156 35.624 17.852 35.696 17.8197C35.7596 17.7897 35.8448 17.7873 35.9228 17.7873C35.9864 17.7873 36.0716 17.7908 36.1424 17.7957V17.7848C36.1424 17.6901 36.0799 17.6589 35.9096 17.6589C35.8436 17.6589 35.7632 17.6624 35.6864 17.6696V17.5472C35.7715 17.5401 35.8676 17.5353 35.9468 17.5353C36.0524 17.5353 36.1616 17.5437 36.2288 17.5916C36.2983 17.6409 36.3115 17.7093 36.3115 17.7992V18.158L36.1783 18.158Z" fill="white"/>
<path d="M36.5291 17.2965H36.6983V18.158H36.5291V17.2965Z" fill="white"/>
</g>
</g>
<defs>
<clipPath id="clip0_140_3423">
<rect width="33.8182" height="12" fill="white" transform="translate(3 7)"/>
</clipPath>
</defs>
</svg>
