<svg width="40" height="26" viewBox="0 0 40 26" fill="none" xmlns="http://www.w3.org/2000/svg">
<rect width="39.8667" height="26" rx="3.46667" fill="#343084"/>
<g clip-path="url(#clip0_704_3019)">
<path fill-rule="evenodd" clip-rule="evenodd" d="M10.0881 10.8273C11.0755 10.7768 12.0135 10.7008 12.9859 10.6576C12.7062 8.59348 11.7141 7.5 8.7134 7.5C5.71268 7.5 4.48786 9.02136 4.31862 10.4192C4.12859 11.9924 5.30715 12.9998 7.19206 13.5505C8.81989 14.0296 10.1842 14.3627 10.2265 15.1655C10.2724 16.0292 9.28996 16.5144 8.8034 16.5144C7.93391 16.5144 6.98805 15.547 6.87475 14.6599C5.92853 14.7351 4.94609 14.7394 3.99951 14.8147C3.99951 17.2239 5.9486 18.4996 8.53305 18.4996C10.9429 18.4996 13.31 17.4818 13.31 14.8781C13.31 11.7172 9.90559 11.7183 7.67683 10.9396C6.89769 10.5074 7.30393 9.56198 8.03753 9.47878C9.51835 9.29834 9.77257 10.1444 10.0881 10.8262V10.8273ZM19.3653 7.75608C21.2965 7.75608 22.664 8.82507 22.664 10.9919C22.664 12.9778 21.3036 14.2453 19.3287 14.2453H16.8622V18.048C16.8622 18.2221 16.7856 18.3091 16.6324 18.3091H14.0591C13.8442 18.3091 13.7367 18.2281 13.7367 18.066V8.20738C13.7367 7.90651 13.8874 7.75608 14.1889 7.75608H19.3653ZM17.11 12.2359C16.9275 12.2359 16.8619 12.1606 16.8619 12.0468V10.0039C16.8619 9.85408 16.9834 9.7698 17.0949 9.7698H18.176C19.1064 9.90775 19.447 10.4141 19.447 11.0747C19.447 12.0198 18.6084 12.2355 17.8802 12.2355H17.1096L17.11 12.2359Z" fill="white"/>
<path fill-rule="evenodd" clip-rule="evenodd" d="M23.3662 8.04786C23.3662 7.91567 23.4609 7.81411 23.5652 7.81411H31.7682C31.9492 7.80582 31.969 7.88074 31.969 7.95133V9.83431C31.9776 9.92183 31.9059 9.96181 31.842 9.96181H26.648C26.5394 9.96181 26.5035 10.0735 26.5035 10.1956V11.467C26.5035 11.6042 26.6007 11.7295 26.7649 11.7295H31.3609L31.4656 11.8347V13.6003C31.4129 13.6759 31.3605 13.7515 31.3078 13.8275H26.6767C26.5695 13.8275 26.5035 13.8938 26.5035 14.0015V15.695C26.5035 15.7883 26.6143 15.8924 26.7438 15.8924H31.8639C31.9317 15.8924 31.9686 15.9572 31.9686 15.9976V18.0545C31.9686 18.1028 31.9141 18.1557 31.8679 18.1557H23.4501C23.4057 18.1557 23.3662 18.1114 23.3662 18.0714V8.04786Z" fill="#FF9400"/>
<path fill-rule="evenodd" clip-rule="evenodd" d="M36.4212 13.6478V18.1564H33.5004C33.4559 18.1564 33.4165 18.1121 33.4165 18.0722V14.0444C33.4165 13.9367 33.4907 13.8744 33.5463 13.8744H34.385C34.4689 13.8744 34.4904 13.9468 34.4904 14.0102V15.8924C34.4904 16.1301 34.689 16.0278 34.7951 15.8924C35.3373 15.144 35.8794 14.3959 36.4219 13.6475L36.4212 13.6478Z" fill="white"/>
<path fill-rule="evenodd" clip-rule="evenodd" d="M33.2886 8.04772C33.2886 7.91553 33.3832 7.81396 33.4876 7.81396H36.1688C36.3546 7.81396 36.4212 7.92814 36.4212 8.01854V11.8684L34.7794 9.5608C34.7439 9.51073 34.6629 9.51397 34.6629 9.61734V11.2795C34.6629 11.3721 34.6174 11.5479 34.4861 11.5479H33.4162C33.3578 11.5479 33.2886 11.4157 33.2886 11.34V8.04772Z" fill="#FF9400"/>
</g>
<defs>
<clipPath id="clip0_704_3019">
<rect width="32.4211" height="11" fill="white" transform="translate(4 7.5)"/>
</clipPath>
</defs>
</svg>
