<svg width="40" height="26" viewBox="0 0 40 26" fill="none" xmlns="http://www.w3.org/2000/svg">
<rect width="39.8667" height="26" rx="3.46667" fill="#019FD1"/>
<path d="M25.9167 5.33329C25.6001 4.91663 25.1084 4.66663 24.5834 4.66663H15.4167C14.8917 4.66663 14.4001 4.91663 14.0834 5.33329L11.8334 8.33329C11.7251 8.47496 11.6667 8.64996 11.6667 8.83329V9.66663C11.6667 10.5333 12.0084 11.3166 12.5501 11.9083C12.5251 11.9916 12.5001 12.075 12.5001 12.1666V19.6666C12.5001 20.5833 13.2501 21.3333 14.1667 21.3333H25.8334C26.7501 21.3333 27.5001 20.5833 27.5001 19.6666V12.1666C27.5001 12.075 27.4751 11.9916 27.4501 11.9083C27.9917 11.3166 28.3334 10.5333 28.3334 9.66663V8.83329C28.3334 8.64996 28.2751 8.47496 28.1667 8.33329L25.9167 5.33329ZM26.6667 9.10829V9.66663C26.6667 10.5833 25.9167 11.3333 25.0001 11.3333C24.0834 11.3333 23.3334 10.5833 23.3334 9.66663V8.83329C23.3334 8.76663 23.3251 8.69996 23.3084 8.63329L22.7334 6.33329H24.5834L26.6667 9.10829ZM18.9834 6.33329H21.0167L21.6667 8.93329V9.66663C21.6667 10.5833 20.9167 11.3333 20.0001 11.3333C19.0834 11.3333 18.3334 10.5833 18.3334 9.66663V8.93329L18.9834 6.33329ZM13.3334 9.10829L15.4167 6.33329H17.2667L16.6917 8.63329C16.6751 8.69996 16.6667 8.76663 16.6667 8.83329V9.66663C16.6667 10.5833 15.9167 11.3333 15.0001 11.3333C14.0834 11.3333 13.3334 10.5833 13.3334 9.66663V9.10829ZM18.3334 19.6666V16.3333H21.6667V19.6666H18.3334ZM23.3334 19.6666V16.3333C23.3334 15.4166 22.5834 14.6666 21.6667 14.6666H18.3334C17.4167 14.6666 16.6667 15.4166 16.6667 16.3333V19.6666H14.1667V12.8833C14.4334 12.95 14.7084 13 15.0001 13C16.0001 13 16.8917 12.55 17.5001 11.85C18.1084 12.55 19.0001 13 20.0001 13C21.0001 13 21.8917 12.55 22.5001 11.85C23.1084 12.55 24.0001 13 25.0001 13C25.2917 13 25.5667 12.95 25.8334 12.8833V19.6666H23.3334Z" fill="white"/>
</svg>
